<svg id="visual" viewBox="0 0 900 600" width="900" height="600" xmlns="http://www.w3.org/2000/svg" xmlns:xlink="http://www.w3.org/1999/xlink" version="1.1"><rect x="0" y="0" width="900" height="600" fill="#211300"></rect><path d="M51 0L534 0L534 33L94 33L94 67L257 67L257 100L230 100L230 133L186 133L186 167L180 167L180 200L183 200L183 233L153 233L153 267L103 267L103 300L391 300L391 333L441 333L441 367L9 367L9 400L518 400L518 433L214 433L214 467L490 467L490 500L355 500L355 533L287 533L287 567L345 567L345 600L0 600L0 567L0 567L0 533L0 533L0 500L0 500L0 467L0 467L0 433L0 433L0 400L0 400L0 367L0 367L0 333L0 333L0 300L0 300L0 267L0 267L0 233L0 233L0 200L0 200L0 167L0 167L0 133L0 133L0 100L0 100L0 67L0 67L0 33L0 33L0 0L0 0Z" fill="#8f4100"></path><path d="M240 0L371 0L371 33L397 33L397 67L305 67L305 100L161 100L161 133L113 133L113 167L318 167L318 200L368 200L368 233L393 233L393 267L18 267L18 300L75 300L75 333L331 333L331 367L146 367L146 400L243 400L243 433L89 433L89 467L308 467L308 500L223 500L223 533L343 533L343 567L189 567L189 600L0 600L0 567L0 567L0 533L0 533L0 500L0 500L0 467L0 467L0 433L0 433L0 400L0 400L0 367L0 367L0 333L0 333L0 300L0 300L0 267L0 267L0 233L0 233L0 200L0 200L0 167L0 167L0 133L0 133L0 100L0 100L0 67L0 67L0 33L0 33L0 0L0 0Z" fill="#c86f02"></path><path d="M57 0L5 0L5 33L215 33L215 67L96 67L96 100L220 100L220 133L150 133L150 167L26 167L26 200L30 200L30 233L246 233L246 267L230 267L230 300L162 300L162 333L26 333L26 367L31 367L31 400L149 400L149 433L41 433L41 467L119 467L119 500L244 500L244 533L263 533L263 567L113 567L113 600L0 600L0 567L0 567L0 533L0 533L0 500L0 500L0 467L0 467L0 433L0 433L0 400L0 400L0 367L0 367L0 333L0 333L0 300L0 300L0 267L0 267L0 233L0 233L0 200L0 200L0 167L0 167L0 133L0 133L0 100L0 100L0 67L0 67L0 33L0 33L0 0L0 0Z" fill="#ffa200"></path></svg>