<svg width="349" height="349" viewBox="0 0 349 349" fill="none" xmlns="http://www.w3.org/2000/svg">
<mask id="path-1-inside-1_2_36" fill="white">
<path fill-rule="evenodd" clip-rule="evenodd" d="M275 349V275H349V74H249.02L74 74V74H74V275L74 349H275Z"/>
</mask>
<path fill-rule="evenodd" clip-rule="evenodd" d="M275 349V275H349V74H249.02L74 74V74H74V275L74 349H275Z" fill="#CF9947"/>
<path d="M275 275V274H274V275H275ZM275 349V350H276V349H275ZM349 275V276H350V275H349ZM349 74H350V73H349V74ZM249.02 74L249.02 75H249.02V74ZM74 74L74 73L73 73V74H74ZM74 74V75H75V74H74ZM74 74V73H73V74H74ZM74 275L73 275V275L74 275ZM74 349L73 349L73 350H74V349ZM274 275V349H276V275H274ZM349 274H275V276H349V274ZM348 74V275H350V74H348ZM249.02 75H349V73H249.02V75ZM74 75L249.02 75L249.02 73L74 73L74 75ZM75 74V74H73V74H75ZM74 75H74V73H74V75ZM75 275V74H73V275H75ZM75 349L75 275L73 275L73 349L75 349ZM275 348H74V350H275V348Z" fill="black" mask="url(#path-1-inside-1_2_36)"/>
</svg>
