<svg width="290" height="252" viewBox="0 0 290 252" fill="none" xmlns="http://www.w3.org/2000/svg">
<g filter="url(#filter0_i_114_91)">
<path d="M4.48423 14.7647C4.77094 9.73772 8.73283 5.76092 13.7589 5.45878C36.6687 4.08151 99.5923 0.548687 143 0.50003C187.853 0.449752 252.96 4.07342 276.284 5.46519C281.287 5.76372 285.251 9.70285 285.567 14.7046C286.875 35.4089 289.992 88.6133 290 125.5C290.008 162.624 286.893 216.141 285.577 237.103C285.257 242.186 281.187 246.165 276.099 246.383C246.961 247.631 155.582 251.5 143 251.5C130.465 251.5 42.5077 247.659 13.939 246.397C8.82967 246.171 4.76755 242.153 4.48008 237.047C3.29593 216.013 0.5 162.439 0.5 125.5C0.5 88.5177 3.30247 35.484 4.48423 14.7647Z" fill="#72A375"/>
</g>
<defs>
<filter id="filter0_i_114_91" x="0.5" y="0.499512" width="289.5" height="251" filterUnits="userSpaceOnUse" color-interpolation-filters="sRGB">
<feFlood flood-opacity="0" result="BackgroundImageFix"/>
<feBlend mode="normal" in="SourceGraphic" in2="BackgroundImageFix" result="shape"/>
<feColorMatrix in="SourceAlpha" type="matrix" values="0 0 0 0 0 0 0 0 0 0 0 0 0 0 0 0 0 0 127 0" result="hardAlpha"/>
<feOffset/>
<feGaussianBlur stdDeviation="10"/>
<feComposite in2="hardAlpha" operator="arithmetic" k2="-1" k3="1"/>
<feColorMatrix type="matrix" values="0 0 0 0 0 0 0 0 0 0 0 0 0 0 0 0 0 0 1 0"/>
<feBlend mode="normal" in2="shape" result="effect1_innerShadow_114_91"/>
</filter>
</defs>
</svg>
