<svg width="351" height="266" viewBox="0 0 351 266" fill="none" xmlns="http://www.w3.org/2000/svg">
<path d="M0 32H86V233H0V32Z" fill="url(#paint0_linear_1_7)"/>
<g filter="url(#filter0_iii_1_7)">
<path d="M111.5 264.195C-2.49966 253.695 0.999887 175.84 0.999871 132.84C0.999887 89.8397 -2.50018 11.8401 111.5 1.34C225.5 -9.16006 209.5 45.34 277.5 50.34C345.5 55.34 350.5 111.34 350.5 132.84C350.5 154.34 345.5 210.195 277.5 215.195C209.5 220.195 225.5 274.695 111.5 264.195Z" fill="#CF9947"/>
</g>
<path d="M248.248 94.9128C245.748 100.413 223.748 100.913 201.748 85.4128C176.748 76.4128 154.463 76.6117 160.26 63.1729C166.056 49.7341 190.899 47.5282 215.748 58.2459C240.597 68.9637 249.913 91.2505 248.248 94.9128Z" fill="black"/>
<path d="M248.248 183.634C245.748 178.134 223.748 177.634 201.748 193.134C176.748 202.134 154.463 201.935 160.26 215.374C166.056 228.813 190.899 231.019 215.748 220.301C240.597 209.583 249.913 187.296 248.248 183.634Z" fill="black"/>
<defs>
<filter id="filter0_iii_1_7" x="0.988159" y="0" width="399.512" height="265.535" filterUnits="userSpaceOnUse" color-interpolation-filters="sRGB">
<feFlood flood-opacity="0" result="BackgroundImageFix"/>
<feBlend mode="normal" in="SourceGraphic" in2="BackgroundImageFix" result="shape"/>
<feColorMatrix in="SourceAlpha" type="matrix" values="0 0 0 0 0 0 0 0 0 0 0 0 0 0 0 0 0 0 127 0" result="hardAlpha"/>
<feOffset/>
<feGaussianBlur stdDeviation="25"/>
<feComposite in2="hardAlpha" operator="arithmetic" k2="-1" k3="1"/>
<feColorMatrix type="matrix" values="0 0 0 0 0 0 0 0 0 0 0 0 0 0 0 0 0 0 0.25 0"/>
<feBlend mode="normal" in2="shape" result="effect1_innerShadow_1_7"/>
<feColorMatrix in="SourceAlpha" type="matrix" values="0 0 0 0 0 0 0 0 0 0 0 0 0 0 0 0 0 0 127 0" result="hardAlpha"/>
<feOffset dx="20"/>
<feGaussianBlur stdDeviation="30"/>
<feComposite in2="hardAlpha" operator="arithmetic" k2="-1" k3="1"/>
<feColorMatrix type="matrix" values="0 0 0 0 0 0 0 0 0 0 0 0 0 0 0 0 0 0 1 0"/>
<feBlend mode="normal" in2="effect1_innerShadow_1_7" result="effect2_innerShadow_1_7"/>
<feColorMatrix in="SourceAlpha" type="matrix" values="0 0 0 0 0 0 0 0 0 0 0 0 0 0 0 0 0 0 127 0" result="hardAlpha"/>
<feOffset dx="100"/>
<feGaussianBlur stdDeviation="25"/>
<feComposite in2="hardAlpha" operator="arithmetic" k2="-1" k3="1"/>
<feColorMatrix type="matrix" values="0 0 0 0 0 0 0 0 0 0 0 0 0 0 0 0 0 0 0.25 0"/>
<feBlend mode="normal" in2="effect2_innerShadow_1_7" result="effect3_innerShadow_1_7"/>
</filter>
<linearGradient id="paint0_linear_1_7" x1="42.8768" y1="32.1602" x2="44.9057" y2="232.981" gradientUnits="userSpaceOnUse">
<stop stop-color="#362A18"/>
<stop offset="0.3125" stop-color="#A27838"/>
<stop offset="0.5" stop-color="#CF9947"/>
<stop offset="0.6875" stop-color="#AB7E3A"/>
<stop offset="1" stop-color="#302515"/>
</linearGradient>
</defs>
</svg>
