<svg width="351" height="268" viewBox="0 0 351 268" fill="none" xmlns="http://www.w3.org/2000/svg">
<path d="M111.5 265.356C-2.49963 254.856 0.999917 177 0.999901 134C0.999917 90.9999 -2.50014 13.0003 111.5 2.5002C225.5 -7.99986 209.5 46.5002 277.5 51.5002C345.5 56.5002 350.5 112.5 350.5 134C350.5 155.5 345.5 211.356 277.5 216.356C209.5 221.356 225.5 275.856 111.5 265.356Z" fill="#CF9947" stroke="black"/>
<path d="M248.248 96.073C245.748 101.573 223.748 102.073 201.748 86.573C176.748 77.573 154.463 77.772 160.26 64.3331C166.056 50.8943 190.899 48.6884 215.748 59.4062C240.597 70.1239 249.913 92.4108 248.248 96.073Z" fill="black"/>
<path d="M248.248 184.794C245.748 179.294 223.748 178.794 201.748 194.294C176.748 203.294 154.463 203.095 160.26 216.534C166.056 229.973 190.899 232.179 215.748 221.461C240.597 210.743 249.913 188.456 248.248 184.794Z" fill="black"/>
</svg>
