<svg width="204" height="477" viewBox="0 0 204 477" fill="none" xmlns="http://www.w3.org/2000/svg">
<g clip-path="url(#clip0_114_112)">
<path fill-rule="evenodd" clip-rule="evenodd" d="M157.696 476.27C167.666 475.839 186.347 470.281 190.769 432.111C195.736 389.233 202.299 286.389 203.417 214.407C203.764 187.774 204.319 161.126 203.713 134.511C202.429 102.219 199.598 70.0069 194.86 38.0662C189.055 -0.863168 166.348 0.925727 101.967 0.285245C36.2871 -0.368146 14.8761 -1.07018 9.07403 37.8511C4.33536 69.7928 1.53138 102.004 0.247435 134.296C-0.358293 160.911 0.197941 187.559 0.543503 214.191C1.66172 286.175 8.22424 389.018 13.1911 431.895C17.6125 470.065 36.2665 475.597 46.2362 476.028C83.3802 476.813 120.546 477.064 157.696 476.27Z" fill="#45527B"/>
<path fill-rule="evenodd" clip-rule="evenodd" d="M101.393 4.39893C85.817 4.39893 50.1982 5.82801 46.7932 6.28201C42.18 6.89766 24.6466 6.58635 20.341 29.3438C16.0354 52.1023 11.5686 80.5533 10.1955 108.378C6.84002 168.371 6.62912 219.306 28.0366 263.703C36.4281 281.107 58.2634 313.109 101.285 313.109C144.74 313.109 170.744 281.537 179.136 264.132C200.544 219.734 195.946 168.371 192.591 108.381C191.218 80.5563 186.751 52.1053 182.446 29.3469C178.14 6.58838 160.606 6.8997 155.993 6.28504C152.588 5.83124 116.968 4.39893 101.393 4.39893ZM101.985 9.86149C115.236 9.70758 145.67 11.812 150.934 12.3907C160.768 13.4714 171.393 14.5781 174.399 33.9191C184.98 95.4749 188.063 160.635 175.287 222.231C169.014 243.542 153.234 256.424 150.153 257.402L143.426 257.186C141.251 261.336 127.434 273.493 101.984 273.493C76.5355 273.493 62.717 261.336 60.5423 257.186L53.8149 257.402C50.7335 256.423 34.9809 243.541 28.7082 222.231C15.9323 160.635 18.9886 95.4749 29.5691 33.9191C32.5754 14.5785 43.2266 13.472 53.0612 12.3907C66.136 11.2372 88.7334 10.0152 101.985 9.86149Z" fill="#CACCCB"/>
<path d="M33.9693 312.625C28.9052 312.664 25.1715 314.282 23.9051 318.356C21.8786 324.875 27.9865 333.735 38.517 336.251C49.0477 338.768 61.1801 339.135 62.3052 332.403C63.4305 325.672 54.2193 316.433 44.2487 314.051C40.5097 313.157 37.0077 312.599 33.9693 312.625ZM170.03 312.625C166.991 312.595 163.462 313.157 159.723 314.051C149.753 316.433 140.568 325.672 141.693 332.403C142.819 339.135 154.924 338.768 165.455 336.251C175.986 333.735 182.12 324.876 180.093 318.357C178.827 314.283 175.093 312.667 170.03 312.625ZM102.001 320.671C91.7586 320.671 80.6103 324.102 80.1505 330.762C79.6699 337.719 91.1678 344.406 102.001 344.406C112.822 344.406 124.345 337.741 123.879 330.789C123.432 324.118 112.261 320.671 102.001 320.671ZM36.3681 346.209C31.3041 346.248 27.5706 347.839 26.3042 351.914C24.2776 358.433 30.3856 367.292 40.9161 369.808C51.4469 372.324 63.5793 372.692 64.7043 365.96C65.8297 359.228 56.6186 349.99 46.6478 347.607C42.9088 346.714 39.4065 346.183 36.3681 346.209ZM167.632 346.209C164.594 346.179 161.065 346.714 157.326 347.608C147.355 349.991 138.171 359.229 139.296 365.961C140.422 372.692 152.527 372.325 163.058 369.809C173.588 367.292 179.723 358.433 177.696 351.914C176.43 347.839 172.696 346.251 167.632 346.209ZM101.999 354.551C91.7565 354.551 80.6081 357.955 80.1484 364.615C79.6678 371.572 91.1657 378.285 101.999 378.285C112.82 378.285 124.343 371.594 123.877 364.641C123.43 357.97 112.259 354.551 101.999 354.551ZM38.3303 379.765C33.2662 379.804 29.5056 381.395 28.2395 385.47C26.2128 391.989 32.3479 400.875 42.8783 403.391C53.409 405.908 65.5148 406.248 66.6398 399.516C67.7651 392.784 58.5809 383.546 48.61 381.163C44.871 380.27 41.3687 379.739 38.3303 379.765ZM165.672 379.765C162.634 379.735 159.132 380.27 155.393 381.164C145.422 383.547 136.211 392.785 137.336 399.517C138.461 406.248 150.593 405.908 161.124 403.392C171.655 400.875 177.763 391.989 175.736 385.47C174.47 381.396 170.736 379.807 165.672 379.765ZM102.003 388.403C91.7604 388.403 80.6121 391.834 80.1523 398.494C79.6717 405.451 91.1696 412.138 102.003 412.138C112.824 412.138 124.347 405.473 123.881 398.522C123.434 391.85 112.263 388.403 102.003 388.403ZM40.2716 413.321C35.2075 413.361 31.474 414.951 30.2077 419.026C28.1811 425.545 34.3161 434.431 44.8466 436.947C55.3773 439.464 67.4827 439.831 68.6078 433.099C69.733 426.368 60.5488 417.102 50.5779 414.72C46.8389 413.826 43.3099 413.296 40.2716 413.321ZM163.711 413.321C160.672 413.292 157.17 413.826 153.432 414.72C143.461 417.103 134.277 426.368 135.402 433.1C136.527 439.832 148.632 439.464 159.163 436.948C169.694 434.432 175.828 425.545 173.802 419.026C172.535 414.952 168.775 413.364 163.711 413.321ZM102.006 422.282C91.7635 422.282 80.6151 425.713 80.1554 432.373C79.6747 439.33 91.1726 446.017 102.006 446.017C112.827 446.017 124.35 439.352 123.884 432.401C123.437 425.73 112.266 422.282 102.006 422.282Z" fill="#B3B3B3"/>
<path d="M101.989 11.2506C101.334 11.2506 100.732 11.5806 100.213 12.1118C99.6939 12.6431 99.225 13.3925 98.7868 14.3186C97.912 16.1707 97.1439 18.7927 96.4995 22.0145C95.2108 28.4583 94.4276 37.3146 94.4276 47.0946C94.4276 56.8748 95.211 65.7311 96.4995 72.1746C97.1439 75.3965 97.9115 78.019 98.7868 79.8712C99.2247 80.7976 99.6946 81.5192 100.213 82.0506C100.733 82.5819 101.333 82.9119 101.989 82.9119C102.644 82.9119 103.246 82.5819 103.765 82.0506C104.284 81.5194 104.753 80.7973 105.192 79.8712C106.066 78.019 106.835 75.3965 107.479 72.1746C108.768 65.7308 109.551 56.8746 109.551 47.0946C109.551 37.3145 108.767 28.4581 107.479 22.0145C106.834 18.7927 106.067 16.1707 105.192 14.3186C104.754 13.3921 104.284 12.6432 103.765 12.1118C103.246 11.5806 102.645 11.2506 101.989 11.2506ZM101.989 12.2464C102.309 12.2464 102.664 12.4018 103.065 12.8119C103.467 13.223 103.896 13.886 104.303 14.7489C105.119 16.4748 105.875 19.0287 106.51 22.203C107.78 28.5515 108.555 37.3682 108.555 47.0946C108.555 56.8211 107.78 65.6379 106.51 71.9861C105.876 75.1604 105.119 77.7144 104.303 79.4403C103.895 80.3032 103.466 80.94 103.065 81.3506C102.664 81.7607 102.309 81.9428 101.989 81.9428C101.669 81.9428 101.314 81.7607 100.913 81.3506C100.511 80.9395 100.109 80.3032 99.7017 79.4403C98.8864 77.7144 98.1302 75.1604 97.4953 71.9861C96.2256 65.6375 95.4231 56.821 95.4231 47.0946C95.4231 37.3682 96.2256 28.5512 97.4953 22.203C98.1298 19.0287 98.886 16.4748 99.7017 14.7489C100.11 13.886 100.512 13.2225 100.913 12.8119C101.314 12.4018 101.669 12.2464 101.989 12.2464Z" fill="black"/>
<path d="M101.989 19.5925C100.128 19.5925 98.5984 20.1634 98.5984 20.8841C98.5984 21.604 100.128 22.2029 101.989 22.2029C103.85 22.2029 105.353 21.6039 105.353 20.8841C105.353 20.1642 103.85 19.5925 101.989 19.5925ZM101.989 32.2401C100.128 32.2401 98.5984 32.8381 98.5984 33.559C98.5984 34.2789 100.128 34.8505 101.989 34.8505C103.85 34.8505 105.353 34.2796 105.353 33.559C105.353 32.839 103.85 32.2401 101.989 32.2401ZM101.989 44.915C100.128 44.915 98.5984 45.4858 98.5984 46.2066C98.5984 46.9265 100.128 47.5254 101.989 47.5254C103.85 47.5254 105.353 46.9274 105.353 46.2066C105.353 45.4866 103.85 44.915 101.989 44.915ZM101.989 57.5893C100.128 57.5893 98.5984 58.1607 98.5984 58.8814C98.5984 59.6014 100.128 60.1997 101.989 60.1997C103.85 60.1997 105.353 59.6013 105.353 58.8814C105.353 58.1615 103.85 57.5893 101.989 57.5893ZM101.989 70.2375C100.128 70.2375 98.5984 70.8349 98.5984 71.5557C98.5984 72.2756 100.128 72.8478 101.989 72.8479C103.85 72.8479 105.353 72.2764 105.353 71.5557C105.353 70.8358 103.85 70.2375 101.989 70.2375Z" fill="black"/>
<path fill-rule="evenodd" clip-rule="evenodd" d="M161.072 260.194C159.405 260.284 158.158 261.626 156.256 263.962C146.653 275.747 122.43 279.812 122.43 279.812C114.203 281.196 115.082 285.214 115.272 287.482C115.532 290.597 116.842 299.538 118.205 305.619C119.205 310.078 123.93 308.762 126.386 307.879C141.806 302.337 161.231 289.491 169.819 275.668C173.05 270.467 174.822 268.551 170.545 265.362C169.387 264.498 167.962 263.596 166.267 262.429C163.932 260.822 162.369 260.127 161.072 260.194ZM44.7926 261.567C42.4596 261.458 40.2446 263.908 40.2446 263.908L34.6745 268.375C34.027 269.764 33.568 271.179 34.9166 273.138C34.4151 274.089 48.4046 290.511 52.3001 293.159C54.1351 294.406 57.3626 298.102 60.8037 294.155L68.6075 285.22C69.9225 283.712 74.4878 279.683 67.7466 276.421C60.2059 273.389 52.9132 268.688 47.0794 262.697C46.3565 261.904 45.5702 261.603 44.7926 261.567Z" fill="#B3B3B3"/>
<path fill-rule="evenodd" clip-rule="evenodd" d="M101.989 251.357C89.6778 251.447 78.0598 251.103 66.9393 253.886C62.1336 255.487 62.8232 257.2 64.8404 259.565C68.9335 264.363 87.5223 272.474 101.989 272.253C116.456 272.031 128.832 267.945 139.138 259.565C141.156 257.2 141.872 255.487 137.066 253.886C131.052 251.798 114.299 251.268 101.989 251.357Z" fill="#B3B3B3"/>
<path d="M115.151 260.394H88.8565C87.7737 260.394 86.8958 261.271 86.8958 262.354C86.8958 263.437 87.7737 264.315 88.8565 264.315H115.151C116.234 264.315 117.112 263.437 117.112 262.354C117.112 261.271 116.234 260.394 115.151 260.394Z" fill="#00CFFF"/>
<path fill-rule="evenodd" clip-rule="evenodd" d="M101.989 230.603C117.103 230.583 148.519 230.114 162.832 228.921C165.273 228.613 170.009 228.262 171.147 220.633C172.294 212.945 174.985 150.539 174.215 139.123C173.443 127.69 167.161 128.669 163.155 128.601C122.395 127.396 81.6369 127.881 40.8775 128.601C36.8709 128.671 30.589 127.69 29.8175 139.123C29.0469 150.539 31.7384 212.945 32.8851 220.633C34.023 228.262 38.7326 228.612 41.1735 228.921C47.1814 229.682 86.7217 230.621 101.989 230.603Z" fill="#6ABF81"/>
<path d="M132.573 93.2716H71.4314C71.0329 93.2716 70.7099 93.5985 70.7099 94.0019V105.458C70.7099 105.861 71.0329 106.189 71.4314 106.189H132.573C132.972 106.189 133.295 105.861 133.295 105.458V94.0019C133.295 93.5985 132.972 93.2716 132.573 93.2716Z" fill="black"/>
<path d="M100.699 137.758V138.619V139.48H98.9224H97.1463L97.6845 140.341L98.2227 141.202H95.5854H92.9483V142.063V142.924H92.0337C91.5263 142.924 90.5151 143.501 89.8004 144.215L88.5085 145.507L87.7012 145.023L86.9209 144.538V145.883V147.229H86.06H85.199V145.937V144.646H84.0148C83.3624 144.646 82.3761 145.178 81.8353 145.829L80.8662 147.014L78.2828 146.798L75.7264 146.556V147.767V148.951H74.4884H73.2236L72.5514 147.874L71.8514 146.798L69.9138 146.691L67.9761 146.583V147.768V148.952H66.254H64.5318V149.813V150.673H63.24H61.9484V151.534V152.395H63.9127H65.8773L67.1152 150.673L68.3528 148.951H70.3174H72.2817V149.812V150.673H70.9902H69.6983V151.534V152.394H67.9761H66.254V153.256V154.116H64.5318C63.5785 154.116 61.9261 153.632 60.872 153.04C59.8179 152.448 58.2643 151.2 57.4274 150.296C56.5903 149.391 55.7317 148.843 55.517 149.057C55.3025 149.272 56.0304 150.493 57.1316 151.775L59.1229 154.116H60.549H61.9484V154.978V155.838H60.6029H59.2305L58.0195 157.049L56.7816 158.287V160.924V163.589H55.867H54.9525L55.5176 164.476L56.0825 165.391L58.1547 162.969C59.2954 161.642 60.2263 160.189 60.2269 159.739V158.932L61.2493 159.928L62.2451 160.95L60.3884 162.592C59.3568 163.487 58.5044 164.671 58.5044 165.229C58.5044 165.787 57.5353 167.194 56.3516 168.378C55.1676 169.562 54.1988 170.975 54.1988 171.499V172.442L55.921 170.45L57.6435 168.459L58.262 169.077L58.8808 169.696L57.6159 170.477L56.378 171.257L57.4274 172.334C58.0152 172.922 58.5038 173.704 58.5038 174.083V174.783H55.4901H52.476V175.455C52.476 175.834 52.9298 176.609 53.4985 177.178L54.5482 178.227H53.5791C53.0498 178.227 52.4837 177.794 52.3142 177.285L51.9915 176.371L48.5738 176.693L45.1565 176.99L46.8786 177.77C47.8259 178.198 49.1366 179.066 49.7851 179.707L50.969 180.892L50.2966 181.483L49.6511 182.102L49.2751 181.025L48.8987 179.949H47.2302H45.5886V179.088V178.227H44.6195C44.0833 178.227 42.9234 177.366 42.0361 176.344L40.4215 174.487L39.776 175.187L39.1305 175.859L40.2069 176.264L41.2836 176.64V177.985V179.304L43.14 180.918L44.9971 182.533L44.4589 183.071L43.9207 183.609L41.3912 180.918L38.8614 178.227H37.3814H35.9014L36.9778 179.519L38.0542 180.811L37.2202 181.887L35.6792 183.181L35.6592 198.033H36.9553H37.8432V199.244V200.455L36.7668 200.885L35.7171 201.343V201.373L36.982 202.261L38.2739 203.202L36.982 204.062L35.7171 204.897V204.947L36.982 205.834L38.2739 206.749L37.1972 207.207L35.7947 207.638L35.7153 223.918H168.379L168.419 193.498L166.225 194.585C165.802 194.585 165.233 194.004 164.961 193.294L164.476 192.002L164.961 190.711L165.472 189.419H166.602H167.705L167.544 188.343C167.454 187.751 167.079 186.782 166.709 186.19L166.037 185.113L166.737 184.037C167.114 183.445 167.453 182.573 167.491 182.099C167.531 181.626 166.984 180.566 166.307 179.758L165.096 178.278L163.885 179.489C163.23 180.144 162.701 180.887 162.701 181.158C162.701 181.429 163.252 181.669 163.912 181.669H165.096L165.607 182.961L166.092 184.252H164.531H162.997L161.84 182.099L160.683 179.947H159.122H157.535V179.086V178.225H156.243H154.951V179.086C154.951 179.56 155.28 179.947 155.678 179.947C156.075 179.947 156.821 180.866 157.346 182.019L158.316 184.118L157.266 184.494L156.244 184.844L157.885 186.7L159.527 188.557L158.908 189.176L158.289 189.794L157.428 188.53L156.568 187.265L157.106 189.203L157.644 191.14H156.837C156.382 191.14 155.76 190.512 155.464 189.741L154.926 188.314L155.895 187.157L156.891 185.973H155.922H154.952V183.013V180.08L153.876 179.73L152.827 179.354L154.253 177.928C155.043 177.137 156.113 176.502 156.621 176.502H157.535V177.362L157.535 178.225L159.177 178.224H160.845L161.222 179.3L161.598 180.376L162.352 179.676L163.079 178.976L161.841 178.222L160.603 177.442L162.648 175.666L164.693 173.89L164.021 173.244L163.321 172.626L162.944 173.702C162.733 174.294 162.195 174.779 161.76 174.779H160.98V173.056V171.334H159.258H157.535V170.311C157.535 169.756 156.865 168.569 156.055 167.674L154.602 166.06L155.84 165.252L157.105 164.445L155.813 163.584L154.522 162.723L155.786 161.889L157.051 161.082L156.379 160.409L155.707 159.736L154.899 161.028L154.092 162.293L153.285 161.028L152.451 159.736L151.993 160.221L151.535 160.679L153.365 162.643L155.195 164.607L154.011 165.334L152.854 166.061L154.764 167.729C155.815 168.64 156.675 169.803 156.675 170.34V170.905L158.828 173.246C160.012 174.523 160.98 175.761 160.98 176.018C160.98 176.275 160.236 176.502 159.339 176.502H157.725L157.186 175.13C156.898 174.381 156.675 173.117 156.675 172.331V171.336H155.814C155.34 171.336 154.953 170.949 154.953 170.475V169.614H153.931H152.881L153.931 170.636L154.953 171.659V174.081V176.503H154.415C154.122 176.503 152.785 175.243 151.428 173.704L148.952 170.905L148.922 171.982V173.058H147.577H146.204L144.993 171.82C144.317 171.144 143.756 170.125 143.756 169.56V168.537L142.464 169.614C141.754 170.204 141.172 171.081 141.172 171.578C141.172 172.074 141.812 173.185 142.598 174.054L144.025 175.642L143.352 176.287L142.652 176.933L142.276 175.856L141.9 174.78H140.662H139.451V173.057V171.335H138.186H136.921L136.034 169.667L135.146 167.998L135.684 166.653C135.97 165.908 136.526 165.308 136.949 165.308H137.729V167.029V168.752H139.506H141.308L144.618 165.308C146.438 163.413 148.344 161.863 148.87 161.863H149.839L150.539 159.926L151.266 158.015L154.899 158.284L158.532 158.553L159.743 156.965L160.927 155.404L160.957 156.912L160.986 158.418H162.628H164.296L164.781 157.342L165.292 156.265L165.804 157.342C166.08 157.934 166.662 158.418 167.095 158.418L168.414 158.498L168.335 141.045L164.51 141.199H161.119L160.769 142.275L160.42 143.352L148.176 143.381L135.905 143.411L134.99 142.308L134.076 141.204H129.878H125.68V140.344V139.483H123.069H120.432L120.701 140.99C120.84 141.819 121.407 142.981 121.966 143.573C122.524 144.165 123.408 144.649 123.931 144.649H124.872L125.356 145.941L125.868 147.233H129.635H133.43V148.094C133.43 148.567 133.042 148.955 132.569 148.955H131.708V150.57V152.184L129.932 152.642L128.129 153.126L127.698 154.741L127.295 156.382L124.765 156.006L122.235 155.63V157.029V158.429H120.513H118.791V159.289V160.15H116.638H114.486V161.496V162.841L115.723 164.079L116.934 165.317H119.518H122.101L122.585 164.24L123.097 163.164L123.609 164.24L124.093 165.317H125.815H127.537L128.802 166.581L130.094 167.873L129.422 168.949C129.049 169.545 128.677 170.512 128.587 171.102C128.498 171.692 128.775 172.397 129.206 172.663L129.987 173.148V170.941V168.762H132.705H135.449L134.858 169.326L134.266 169.919L136.122 171.883L137.953 173.82L136.607 175.166C135.871 175.902 135.048 176.511 134.777 176.511C134.507 176.511 134.36 176.22 134.454 175.866C134.544 175.51 134.332 174.348 133.97 173.282L133.324 171.345H132.517H131.71V173.067V174.79H132.571C133.044 174.79 133.432 175.177 133.432 175.65V176.511H132.113H130.767L128.588 174.305L126.381 172.125L126.839 170.941L127.297 169.784L125.628 168.277L123.96 166.77V167.766V168.761H124.821H125.682V170.537V172.313L124.336 173.659L123.018 174.977L122.506 174.466L121.995 173.954L123.071 172.636L124.175 171.344H123.287C122.794 171.344 122.164 171.829 121.888 172.42L121.376 173.497L120.865 172.42C120.588 171.829 119.957 171.344 119.465 171.344H118.577L119.681 172.636L120.757 173.954L120.165 174.547L119.547 175.165L118.766 173.9L117.959 172.636L117.989 173.496C117.998 173.97 118.773 175.298 119.738 176.456L121.487 178.556L122.375 177.318L123.236 176.08L123.667 177.156L124.098 178.233H125.228H126.358L126.843 179.498L127.327 180.762L126.52 181.247C126.067 181.527 125.686 182.102 125.686 182.512C125.686 182.921 126.711 184.484 127.973 185.983L130.261 188.701L129.077 189.455L127.893 190.181L129.938 191.957L131.983 193.734L131.471 194.245L130.96 194.756L128.619 192.442L126.304 190.101L127.489 189.32L128.7 188.567L127.757 187.921C127.236 187.566 126.351 186.399 125.793 185.338L124.77 183.4L123.828 183.616L122.885 183.831L122.509 182.809L122.133 181.813L123.855 181.517L125.577 181.248L124.232 179.526L122.913 177.804L122.509 178.88L122.106 179.956H120.438H118.796V178.153V176.377L117.504 177.669C116.794 178.379 116.213 179.547 116.213 180.252V181.517L115.136 181.948L114.06 182.406L114.947 183.106C115.432 183.497 116.528 184.946 117.396 186.308L118.984 188.784L118.015 189.376L117.073 189.941L118.875 191.905L120.678 193.843L120.167 194.354L119.656 194.865L117.907 192.847L116.157 190.802L116.642 189.565L117.1 188.326L115.646 186.066C114.838 184.831 113.68 183.348 113.09 182.756C112.5 182.164 111.576 181.68 111.018 181.679H109.995L110.614 183.187C110.948 184.016 111.291 185.184 111.395 185.797C111.498 186.409 112.257 187.704 113.09 188.676L114.624 190.452L114.113 190.937L113.628 191.422L111.502 188.919L109.349 186.417L109.538 185.529L109.753 184.641L107.897 182.299L106.067 179.959H104.667H103.295V180.846V181.681H104.156H105.017V183.187V184.694L107.223 187.278C108.435 188.699 110.179 190.729 111.098 191.799C112.018 192.868 112.767 193.933 112.767 194.166C112.767 194.4 112.463 194.597 112.093 194.597C111.724 194.597 110.853 193.754 110.156 192.741C109.46 191.728 108.019 190.017 106.954 188.92C105.888 187.822 105.016 186.509 105.016 186.014V185.126H104.155H103.294V183.403V181.762L102.272 181.143L101.222 180.498L102.272 180.148C102.841 179.958 103.294 179.452 103.294 179.018V178.238H102.003H100.711V179.959V181.682H101.572H102.433V184.588V187.495L103.725 188.571L105.016 189.62V190.885C105.016 191.571 104.455 192.684 103.779 193.361C103.102 194.037 102.327 194.599 102.056 194.599C101.785 194.599 101.572 194.212 101.572 193.738C101.572 193.264 101.959 192.877 102.433 192.877H103.293V191.154V189.432H102.379H101.464L102.002 188.572L102.541 187.711H101.626H100.712V190.294V192.877H99.8506H98.9897V191.155V189.433H98.1291C97.6554 189.433 97.2681 189.07 97.2681 188.652V187.898L98.9903 187.441L100.712 187.01V184.346L100.711 181.682H98.9903H97.2681V180.821V179.96H95.115H92.9623V179.099V178.238H88.2264H83.4902V179.099V179.96H80.9068C79.4859 179.96 78.3234 179.781 78.3234 179.584C78.3234 179.385 78.0573 178.514 77.7316 177.646L77.1934 176.193L77.114 176.272L76.4952 176.891L75.6879 175.626L74.8806 174.361L74.1002 175.572L73.3196 176.783L71.9475 175.411C71.1938 174.657 70.575 173.578 70.575 173.016V171.993L72.2972 172.451L74.0193 172.909V171.886V170.863L75.7415 169.626L77.464 168.361V166.854V165.32H78.4061C78.9264 165.32 80.4428 166.482 81.7701 167.903C83.0974 169.324 84.4692 170.487 84.8108 170.487H85.4293L84.326 169.168L83.2496 167.85L83.7611 167.338L84.2723 166.827L85.5912 168.146L86.9366 169.491L87.0439 171.482L87.1788 173.5L87.5551 171.482L87.9315 169.464L86.3975 167.769L84.8639 166.074L86.0748 165.293L87.3127 164.539L86.6939 163.921L86.0754 163.302L84.3799 165.266L82.6847 167.231L81.3123 165.858L79.9398 164.459L82.1196 162.306L84.2723 160.153H85.4027H86.5327L87.6091 161.876L88.6855 163.598H89.9504H91.2422V161.446V159.292H90.3813C89.9076 159.292 89.5204 158.954 89.5204 158.539V157.785H91.6462H93.772L95.1175 159.83L96.436 161.875H98.5888H100.715V162.737V163.597H102.491H104.294L105.639 162.225L107.012 160.852L106.177 160.287C105.711 159.976 105.048 159.008 104.724 158.135L104.16 156.547L102.437 156.089C101.493 155.842 100.715 155.337 100.715 154.959C100.715 154.579 101.2 154.094 101.791 153.882L102.868 153.478L102.168 152.751L101.469 151.998L100.742 153.209L100.015 154.393L98.6424 153.021C97.8887 152.267 97.2699 151.434 97.2699 151.163V150.679H102.544H107.846L109.783 148.392L111.721 146.131L111.532 144.786L111.316 143.414L108.06 143.091L104.777 142.768L104.077 143.898L103.377 145.028L102.812 144.437L102.22 143.872L103.62 142.472C104.386 141.706 105.019 140.941 105.019 140.777C105.019 140.613 104.795 139.858 104.507 139.109L103.969 137.763H102.355H100.713L100.699 137.758ZM77.1794 176.185L77.2091 176.155L77.1297 176.076L77.1794 176.185ZM77.2091 176.155L78.5816 177.259L80.0346 178.416V177.473C80.0346 176.942 79.7058 176.504 79.3077 176.504C78.9105 176.504 78.1259 175.462 77.5585 174.217L76.5361 171.956L75.9979 172.494L75.4863 173.006L76.5897 174.351L77.6931 175.67L77.2091 176.155ZM100.701 178.227V177.367V176.505H101.562C102.042 176.505 103.278 176.99 104.28 177.582L106.083 178.658L106.486 177.582L106.863 176.505H108.531H110.173V177.232C110.173 177.633 110.902 178.796 111.787 179.816C112.672 180.835 113.64 181.672 113.94 181.672H114.478V179.089V176.506H115.77H117.061V175.645V174.784H115.77H114.478V172.712V170.64L112.729 171.071L111.007 171.528L112.083 172.874L113.186 174.193L112.083 174.569L110.953 174.945L111.975 176.156L112.998 177.394L112.326 178.013L111.654 178.658L111.277 177.555C111.063 176.954 110.297 175.875 109.582 175.16L108.29 173.868L109.151 172.819L110.012 171.769L107.994 169.402L105.949 167.033H104.63H103.284V166.011V165.015L102.827 165.473L102.369 165.904L102.934 167.33L103.472 168.756H104.791H106.109L107.24 170.263C107.869 171.093 108.408 172.06 108.424 172.416L108.453 173.061H106.731H105.009V171.716V170.37L104.228 170.855L103.421 171.34L101.591 168.999L99.7346 166.657L98.9809 167.895L98.2272 169.133L96.4781 167.141C95.5288 166.047 94.6027 164.703 94.4059 164.155L94.0562 163.159L93.4108 163.75L92.7386 164.369L93.9226 165.58C94.571 166.251 95.9785 167.828 97.0442 169.079C98.1098 170.329 98.9818 171.756 98.9818 172.254V173.142L99.8964 172.603L100.784 172.039L99.7615 170.801L98.7388 169.563L99.1967 169.105L99.6546 168.648L103.206 171.876C105.15 173.663 106.732 175.431 106.732 175.805V176.505H105.063H103.395L102.857 174.783L102.319 173.061H101.511H100.704V174.783C100.704 175.73 100.466 176.505 100.166 176.505C99.8659 176.505 98.7057 175.44 97.5824 174.137L95.5372 171.769L95.9135 170.72L96.3175 169.67L95.5102 169.159L94.6762 168.648V170.854V173.06H93.4383H92.2004L91.5549 172.011L90.9364 170.989L91.9319 170.666L92.9544 170.316V168.675V167.034H91.3131H89.6446L89.2137 165.957L88.7828 164.881L88.7331 165.876C88.6933 166.434 89.2675 167.514 90.0249 168.271L91.3971 169.643L90.3476 170.908L89.2982 172.2H90.2673H91.2365V173.976V175.752L92.4744 176.99C93.1506 177.666 94.1197 178.228 94.6272 178.228H95.5417V177.367V176.506H94.2499C93.5399 176.506 92.9583 176.266 92.9583 175.994C92.9583 175.724 93.5391 174.929 94.2499 174.219L95.5417 172.927L95.649 173.627C95.7086 174.016 95.6885 174.657 95.619 175.053L95.4851 175.78L97.2342 176.238C98.1954 176.489 98.9833 177.016 98.9833 177.395C98.9833 177.774 98.4988 178.26 97.9069 178.471L96.8305 178.848L97.5842 179.601L98.3648 180.382L98.7412 179.305C98.9527 178.714 99.4908 178.229 99.9252 178.229L100.701 178.227ZM81.7571 146.259L82.618 146.797C83.0917 147.09 83.479 147.67 83.479 148.116C83.479 148.561 83.0917 148.95 82.618 148.95H81.7571V147.604V146.259ZM46.5862 147.658L46.5365 149.3L46.4571 150.941L46.9683 150.43L47.5065 149.919L47.0489 148.788L46.5862 147.658ZM41.1773 148.95L41.7155 149.811C42.0084 150.284 42.4215 150.672 42.63 150.672C42.8386 150.672 43.0064 150.284 43.0064 149.811V148.95H42.0918H41.1773ZM50.6496 148.95L51.1878 149.811C51.4808 150.284 51.8939 150.672 52.1024 150.672C52.3109 150.672 52.4785 150.284 52.4785 149.811V148.95H51.5642H50.6496ZM60.2296 148.95V149.811C60.2296 150.284 60.3971 150.672 60.6057 150.672C60.8142 150.672 61.2283 150.284 61.5202 149.811L62.0584 148.95H61.1438H60.2296ZM113.619 148.95C113.145 148.95 112.758 149.337 112.758 149.811C112.758 150.284 113.145 150.672 113.619 150.672C114.093 150.672 114.48 150.284 114.48 149.811C114.48 149.337 114.093 148.95 113.619 148.95ZM118.786 148.95C118.312 148.95 117.925 149.337 117.925 149.811C117.925 150.284 118.312 150.672 118.786 150.672C119.259 150.672 119.647 150.284 119.647 149.811C119.647 149.337 119.259 148.95 118.786 148.95ZM123.091 148.95C122.618 148.95 122.23 149.337 122.23 149.811C122.23 150.284 122.618 150.672 123.091 150.672C123.565 150.672 123.952 150.284 123.952 149.811C123.952 149.337 123.565 148.95 123.091 148.95ZM79.4968 149.03L80.1968 149.46L80.8689 149.891L78.7701 151.99L76.6709 154.116H75.3254H74.0069V154.977C74.0069 155.451 73.6196 155.838 73.146 155.838C72.6723 155.838 72.285 155.598 72.285 155.327C72.285 155.057 72.8461 154.281 73.523 153.604C74.1992 152.928 75.2782 152.393 75.9179 152.393H77.0749L78.2861 150.698L79.4968 149.03ZM143.326 150.886L144.403 152.016C144.992 152.647 145.479 153.553 145.479 154.008C145.479 154.464 144.801 156.023 143.972 157.479C143.143 158.935 142.272 160.104 142.035 160.089C141.798 160.069 141.12 159.523 140.528 158.852L139.451 157.613V155.945V154.25L138.375 153.873L137.299 153.469L137.999 152.742L138.671 151.989L139.451 153.227L140.205 154.491L141.766 152.688L143.326 150.886ZM110.173 152.285V153.2V154.114H111.034C111.508 154.114 111.895 153.92 111.895 153.71C111.895 153.502 111.508 153.115 111.034 152.822L110.173 152.285ZM40.4233 152.393C39.9496 152.393 39.5624 152.78 39.5624 153.253C39.5624 153.727 39.9496 154.114 40.4233 154.114C40.897 154.114 41.2842 153.727 41.2842 153.253C41.2842 152.78 40.897 152.393 40.4233 152.393ZM45.5898 152.393C45.1161 152.393 44.7289 152.78 44.7289 153.253C44.7289 153.727 45.1161 154.114 45.5898 154.114C46.0635 154.114 46.4507 153.727 46.4507 153.253C46.4507 152.78 46.0635 152.393 45.5898 152.393ZM49.8957 152.393C49.422 152.393 49.0347 152.78 49.0347 153.253C49.0347 153.727 49.422 154.114 49.8957 154.114C50.3693 154.114 50.7566 153.727 50.7566 153.253C50.7566 152.78 50.3693 152.393 49.8957 152.393ZM105.868 152.393C105.394 152.393 105.007 152.78 105.007 153.253C105.007 153.727 105.394 154.114 105.868 154.114C106.341 154.114 106.729 153.727 106.729 153.253C106.729 152.78 106.341 152.393 105.868 152.393ZM115.34 152.393C114.866 152.393 114.479 152.78 114.479 153.253C114.479 153.727 114.866 154.114 115.34 154.114C115.814 154.114 116.201 153.727 116.201 153.253C116.201 152.78 115.814 152.393 115.34 152.393ZM124.812 152.393C124.339 152.393 123.951 152.78 123.951 153.253C123.951 153.727 124.339 154.114 124.812 154.114C125.286 154.114 125.673 153.727 125.673 153.253C125.673 152.78 125.286 152.393 124.812 152.393ZM135.145 153.819L135.603 154.276C135.854 154.529 136.216 155.552 136.41 156.564C136.605 157.575 136.649 158.421 136.518 158.421C136.387 158.421 136.026 158.145 135.71 157.829C135.395 157.513 135.145 156.489 135.145 155.542V153.819ZM128.257 154.114H129.117H129.978V156.267C129.978 157.451 129.84 158.42 129.682 158.42C129.524 158.42 129.137 158.144 128.821 157.829C128.506 157.513 128.257 156.544 128.257 155.676V154.114ZM110.173 155.729V157.075C110.173 157.813 110.341 158.42 110.549 158.42C110.758 158.42 111.165 158.054 111.437 157.613L111.922 156.805L111.034 156.267L110.173 155.729ZM70.4541 155.808L70.9923 156.67L71.5305 157.558H70.6696H69.8356L69.5395 159.064L69.2171 160.572L68.5446 159.468L67.8725 158.392L69.1641 157.1L70.4541 155.808ZM40.423 155.839C39.9493 155.839 39.5621 156.226 39.5621 156.699C39.5621 157.173 39.9493 157.561 40.423 157.561C40.8967 157.561 41.2839 157.173 41.2839 156.699C41.2839 156.226 40.8967 155.839 40.423 155.839ZM43.8673 155.839C43.3937 155.839 43.0064 156.226 43.0064 156.699C43.0064 157.173 43.3937 157.561 43.8673 157.561C44.341 157.561 44.7283 157.173 44.7283 156.699C44.7283 156.226 44.341 155.839 43.8673 155.839ZM49.8954 155.839C49.4217 155.839 49.0344 156.226 49.0344 156.699C49.0344 157.173 49.4217 157.561 49.8954 157.561C50.369 157.561 50.7563 157.173 50.7563 156.699C50.7563 156.226 50.369 155.839 49.8954 155.839ZM107.591 155.839C107.117 155.839 106.73 156.226 106.73 156.699C106.73 157.173 107.117 157.561 107.591 157.561C108.064 157.561 108.451 157.173 108.451 156.699C108.451 156.226 108.064 155.839 107.591 155.839ZM113.618 155.839C113.145 155.839 112.757 156.226 112.757 156.699C112.757 157.173 113.145 157.561 113.618 157.561C114.092 157.561 114.479 157.173 114.479 156.699C114.479 156.226 114.092 155.839 113.618 155.839ZM65.4221 157.238L66.6601 158.906C67.3502 159.819 67.9365 160.865 67.9516 161.221C67.9715 161.576 67.5913 161.866 67.1176 161.866H66.2567V160.628V159.417L65.1803 159.041L64.1039 158.637L64.7494 157.937L65.4221 157.238ZM41.2842 158.933V159.821C41.2842 160.31 41.5336 160.958 41.8494 161.274L42.4412 161.866L42.8722 161.408L43.33 160.977L42.3076 159.955L41.2842 158.933ZM39.5621 159.175L38.6745 159.713L37.8135 160.252L38.2981 161.06C38.5702 161.5 38.9772 161.867 39.1857 161.867C39.3942 161.867 39.5621 161.26 39.5621 160.521V159.175ZM44.7289 159.175V160.09V161.004H45.5898C46.0635 161.004 46.4507 160.81 46.4507 160.601C46.4507 160.392 46.0635 160.005 45.5898 159.713L44.7289 159.175ZM160.115 159.848L159.55 160.413C159.313 160.649 159.056 161.569 158.904 162.673L160.089 161.893L161.353 161.086L160.735 160.467L160.115 159.848ZM158.904 162.673L158.825 162.723L158.904 162.772C158.909 162.733 158.9 162.711 158.904 162.673ZM158.904 162.772C158.864 163.097 158.815 163.436 158.797 163.776L158.608 166.601L159.362 168.055L160.142 169.535L161.407 169.051L162.699 168.566V169.992V171.418L163.533 170.907L164.394 170.396L163.344 168.7L162.295 167.032H160.761H159.254V166.224C159.254 165.791 159.739 165.253 160.33 165.014L161.406 164.555L160.115 163.641L158.904 162.772ZM63.6697 160.143C64.1433 160.143 64.5306 160.531 64.5306 161.004C64.5306 161.478 64.1433 161.865 63.6697 161.865C63.196 161.865 62.8087 161.478 62.8087 161.004C62.8087 160.531 63.196 160.143 63.6697 160.143ZM93.8089 160.143C93.3353 160.143 92.948 160.531 92.948 161.004C92.948 161.478 93.3353 161.865 93.8089 161.865C94.2826 161.865 94.6699 161.478 94.6699 161.004C94.6699 160.531 94.2826 160.143 93.8089 160.143ZM108.448 160.143V161.004V161.865H109.686C110.368 161.865 111.169 161.478 111.462 161.004L112 160.143H110.224H108.448ZM122.226 160.143H123.948H125.67V161.004V161.865H123.948H122.226V161.004V160.143ZM128.253 160.143H129.114H129.975V161.866V163.588H129.114H128.253V161.866V160.143ZM163.56 160.143C163.086 160.143 162.699 160.531 162.699 161.004C162.699 161.478 163.086 161.865 163.56 161.865C164.033 161.865 164.42 161.478 164.42 161.004C164.42 160.531 164.033 160.143 163.56 160.143ZM166.143 160.143V161.004C166.143 161.478 166.311 161.865 166.519 161.865C166.728 161.865 167.142 161.478 167.434 161.004L167.972 160.143H167.058H166.143ZM40.4197 163.588C39.946 163.588 39.5587 163.975 39.5587 164.449C39.5587 164.922 39.946 165.31 40.4197 165.31C40.8933 165.31 41.2806 164.922 41.2806 164.449C41.2806 163.975 40.8933 163.588 40.4197 163.588ZM95.4238 163.588L95.962 164.449C96.255 164.922 96.6678 165.31 96.8763 165.31C97.0848 165.31 97.2527 164.922 97.2527 164.449V163.588H96.3381H95.4238ZM106.726 163.588V164.449V165.31H108.448H110.171V166.305V167.301L110.628 166.87L111.059 166.412L110.521 164.986L109.983 163.587H108.368L106.726 163.588ZM110.924 163.588L111.462 164.449C111.755 164.922 112.168 165.31 112.377 165.31C112.585 165.31 112.753 164.922 112.753 164.449V163.588H111.839H110.924ZM147.979 163.588C147.556 163.588 147.198 163.788 147.198 164.046C147.198 164.303 147.683 165.044 148.275 165.687C148.866 166.329 149.464 166.75 149.593 166.628C149.722 166.507 149.573 165.765 149.27 164.987C148.972 164.208 148.401 163.588 147.979 163.588ZM162.699 163.588V164.449V165.31H164.421H166.143V164.449V163.588H164.421H162.699ZM151.263 166.601L150.886 168.566L150.51 170.557L151.559 171.822L152.609 173.087L153.147 172.522L153.658 171.957L152.582 171.58L151.505 171.177L151.398 168.89L151.263 166.601ZM61.8411 166.632L62.4866 167.277L63.1321 167.922L61.679 169.375L60.2259 170.829V169.994C60.2332 169.538 60.619 168.619 61.0599 167.923L61.8411 166.632ZM112.755 167.035V167.897V168.757H114.477H116.2V170.937V173.144L116.98 172.659L117.76 172.174L117.545 171.099C117.422 170.509 117.016 169.371 116.657 168.542L116.012 167.035H114.397L112.755 167.035ZM117.922 167.035V167.897V168.757H120.074H122.227V167.897V167.035H120.074H117.922ZM164.422 167.171V167.816C164.422 168.169 164.688 168.729 165.014 169.054C165.339 169.38 165.939 169.517 166.359 169.377L167.14 169.134L166.844 168.3C166.69 167.848 166.09 167.419 165.498 167.331L164.422 167.171ZM108.772 167.332C108.733 167.34 108.693 167.362 108.665 167.382C108.448 167.6 108.806 168.33 109.446 169.024C110.085 169.718 110.767 170.143 110.952 169.965C111.138 169.787 110.781 169.056 110.172 168.323C109.64 167.682 109.055 167.278 108.772 167.332ZM145.8 167.362C145.75 167.364 145.721 167.363 145.693 167.392C145.485 167.601 145.834 168.364 146.473 169.088C147.113 169.811 147.982 170.415 148.411 170.433L149.191 170.483L147.631 168.734C146.878 167.903 146.119 167.351 145.8 167.362ZM79.4401 168.681L78.337 170L77.2337 171.318L78.8483 173.605C79.733 174.858 80.8528 176.406 81.3241 177.05C81.7957 177.693 82.2991 178.234 82.4541 178.234C82.609 178.234 83.2843 177.673 83.9611 176.996L85.199 175.758V174.44V173.094L82.8308 171.587C81.5284 170.758 80.2302 169.769 79.9516 169.38L79.4401 168.681ZM49.8926 168.76C49.419 168.76 49.0317 169.148 49.0317 169.622C49.0317 170.095 49.419 170.482 49.8926 170.482C50.3663 170.482 50.7536 170.095 50.7536 169.622C50.7536 169.148 50.3663 168.76 49.8926 168.76ZM142.086 170.052L144.158 172.42L146.257 174.788H147.576H148.922V175.649V176.51H147.199H145.477V177.371V178.232H147.119H148.733L149.271 179.578C149.559 180.326 149.783 181.195 149.783 181.488C149.783 181.781 149.329 181.547 148.76 180.976C148.192 180.408 147.223 179.954 146.607 179.954H145.477L145.447 181.461L145.418 182.968L144.153 181.299L142.915 179.631L142.243 180.331L141.758 180.869L141.651 178.232H140.548H139.444V179.955V181.676H140.305H141.166V183.103V184.529L139.444 182.968L137.722 181.407V179.873V178.367L136.645 178.017L135.596 177.641L137.237 175.999L138.879 174.357L139.228 175.434L139.578 176.511H140.735H141.892L142.242 177.56L142.591 178.636L144.125 177.102L145.659 175.568L143.829 174.008L142.026 172.42L142.056 171.236L142.086 170.052ZM79.2516 170.082L79.8701 170.996C80.1998 171.491 81.1404 172.144 81.9692 172.45L83.4759 173.014V174.764V176.513L82.8305 176.463C82.475 176.443 81.7006 175.898 81.1086 175.225C80.5168 174.553 80.0319 173.634 80.0319 173.18C80.0319 172.726 79.5474 172.18 78.9555 171.969L77.8791 171.565L78.5795 170.838L79.2516 170.082ZM165.363 170.943L164.771 171.562L164.18 172.153L165.202 173.391L166.225 174.602L165.094 174.979L163.991 175.355L165.175 176.781C165.825 177.569 166.747 178.234 167.22 178.234H168.081L167.086 177.05L166.117 175.866L166.548 174.682L166.978 173.498L166.171 172.233L165.363 170.943ZM47.3059 172.1L46.4183 172.638L45.5574 173.176L46.0419 173.983C46.314 174.424 46.721 174.791 46.9295 174.791C47.1381 174.791 47.3059 174.184 47.3059 173.445V172.1ZM50.7505 172.1V173.014V173.929H51.6115C52.0851 173.929 52.4724 173.734 52.4724 173.525C52.4724 173.316 52.0851 172.93 51.6115 172.637L50.7505 172.1ZM149.052 172.8L150.478 174.253L151.931 175.706L150.855 176.379L149.779 177.025L151.555 178.962L153.357 180.873L153.062 181.707L152.766 182.568L151.151 180.658L149.51 178.747L149.267 175.787L149.052 172.8ZM126.529 172.85L126.636 173.603C126.696 174.017 126.676 174.66 126.606 175.056L126.471 175.784L128.22 176.241L129.97 176.699V177.453V178.233H131.638H133.306L133.845 179.955L134.383 181.678H135.19H135.997V183.211V184.772L136.966 185.741L137.962 186.71L136.509 188.163L135.056 189.617L134.464 189.052L133.899 188.46L135.11 187.706L136.321 186.952L135.164 185.58L134.034 184.207L134.572 183.643L135.137 183.104L133.711 181.517L132.285 179.956H131.127H129.97V181.544V183.132L131.692 184.692L133.415 186.253V187.841V189.105L137.155 192.926C139.209 195.025 140.739 196.991 140.573 197.313C140.406 197.636 140.652 198.146 141.138 198.443L142.025 198.981V197.636V196.317H144.609H147.192V195.43V194.568L149.103 195.645C150.159 196.24 151.504 197.329 152.09 198.04C152.677 198.75 153.178 200.01 153.193 200.839L153.223 202.345H154.084H154.945V204.014V205.682L155.859 206.247L156.774 206.812L156.316 208.023L155.858 209.234H156.692H157.527V210.903V212.571L158.388 213.109L159.249 213.621V215.289V216.985H156.235H134.276V214.832V212.679L135.999 210.957V209.234H136.859H137.72V207.512V205.79H138.581H139.442V204.095V202.426L140.303 201.915L141.164 201.376L139.927 198.982C139.248 197.671 137.503 195.342 136.051 193.788C134.6 192.234 133.414 190.53 133.414 190.021V189.429H132.553H131.692V187.841V186.254L129.97 184.693L128.248 183.132V181.544V179.956H129.109C129.582 179.956 129.97 179.569 129.97 179.096V178.233L128.247 178.235H126.525V177.374V176.513H125.233H123.942V175.759C123.942 175.343 124.523 174.519 125.233 173.929L126.529 172.85ZM85.949 174.787L86.4872 175.648C86.7802 176.121 87.5809 176.509 88.2633 176.509H89.5013V175.648V174.787H87.7252H85.949ZM113.612 174.787C114.086 174.787 114.473 175.174 114.473 175.648C114.473 176.121 114.086 176.509 113.612 176.509C113.138 176.509 112.751 176.121 112.751 175.648C112.751 175.174 113.138 174.787 113.612 174.787ZM121.362 174.787C121.836 174.787 122.223 175.174 122.223 175.648C122.223 176.121 121.836 176.509 121.362 176.509C120.888 176.509 120.501 176.121 120.501 175.648C120.501 175.174 120.888 174.787 121.362 174.787ZM74.8621 176.375L76.1536 177.667C76.8636 178.377 77.4455 179.172 77.4455 179.442C77.4455 179.713 76.6707 179.954 75.723 179.954H74.0009V180.815C74.0009 181.288 73.6136 181.676 73.1399 181.676H72.279V180.304V178.958L73.5708 177.666L74.8621 176.375ZM138.585 176.51C138.111 176.51 137.724 176.897 137.724 177.371C137.724 177.845 138.111 178.231 138.585 178.231C139.058 178.231 139.446 177.845 139.446 177.371C139.446 176.897 139.058 176.51 138.585 176.51ZM152.362 176.51C152.836 176.51 153.223 176.897 153.223 177.371C153.223 177.845 152.836 178.231 152.362 178.231C151.889 178.231 151.501 177.845 151.501 177.371C151.501 176.897 151.889 176.51 152.362 176.51ZM163.557 176.51C163.084 176.51 162.697 176.897 162.697 177.371C162.697 177.845 163.084 178.231 163.557 178.231C164.031 178.231 164.418 177.845 164.418 177.371C164.418 176.897 164.031 176.51 163.557 176.51ZM133.526 176.644C133.723 176.64 134.178 176.928 134.71 177.371C135.42 177.961 136.002 178.785 136.002 179.201C136.002 179.616 135.645 179.955 135.222 179.955C134.799 179.955 134.217 179.331 133.93 178.582C133.642 177.832 133.418 177.008 133.418 176.752C133.418 176.692 133.459 176.645 133.526 176.644ZM108.016 178.231C107.306 178.231 106.724 178.432 106.724 178.689C106.724 178.946 107.209 179.712 107.801 180.385C108.393 181.057 108.974 181.605 109.093 181.622C109.211 181.642 109.308 180.901 109.308 179.954V178.232L108.016 178.231ZM144.614 178.231C144.14 178.231 143.753 178.619 143.753 179.093C143.753 179.566 144.14 179.953 144.614 179.953C145.088 179.953 145.475 179.566 145.475 179.093C145.475 178.619 145.088 178.231 144.614 178.231ZM117.516 179.954C117.774 179.954 118.983 180.909 120.18 182.107L122.36 184.286L122.064 184.986L121.795 185.66L119.427 184.314L117.059 182.969V181.462C117.058 180.633 117.258 179.954 117.516 179.954ZM141.762 181.084L142.677 181.433L143.753 181.81V183.29V184.77L146.767 188.161C148.422 190.029 150.165 192.029 150.642 192.601C151.119 193.173 151.503 193.851 151.503 194.108C151.503 194.365 151.199 194.593 150.831 194.593C150.461 194.593 149.59 193.751 148.893 192.735C148.196 191.72 146.341 189.571 144.776 187.972L141.951 185.066L141.789 181.649L141.762 181.084ZM131.698 181.676H132.559H133.42V182.967V184.26H132.559H131.698V182.967V181.676ZM147.199 181.676H148.06H148.921V182.967V184.26H148.06H147.199V182.967V181.676ZM149.782 181.676H150.643H151.504V183.748V185.82L150.59 186.143L149.647 186.439L152.311 189.211C153.767 190.734 154.948 192.171 154.948 192.412C154.948 192.654 154.657 192.857 154.303 192.843C153.947 192.833 152.688 191.701 151.504 190.341C150.32 188.98 149.385 187.443 149.432 186.923C149.482 186.404 149.576 185.013 149.648 183.829L149.782 181.676ZM159.255 181.676H160.115H160.976V183.452V185.228L162.349 186.6L163.721 187.973L164.475 186.762L165.255 185.551V186.52C165.263 187.062 164.154 188.709 162.78 190.18C161.406 191.651 160.049 192.871 159.766 192.871C159.482 192.871 159.254 192.606 159.254 192.306C159.254 192.006 160.091 191.037 161.111 190.153L162.968 188.566L161.111 186.95L159.254 185.336V183.506L159.255 181.676ZM145.477 183.29L146.338 183.829C146.811 184.122 147.199 184.702 147.199 185.147C147.199 185.593 146.811 185.981 146.338 185.981H145.477V184.636V183.29ZM106.726 183.398H107.587H108.448V184.689V185.981H107.587H106.726V184.689V183.398ZM137.726 183.398H138.587C139.061 183.398 139.448 183.762 139.448 184.232C139.448 184.701 140.32 186.13 141.386 187.38C142.451 188.631 143.827 190.178 144.453 190.825L145.611 192.009L144.319 193.3C143.609 194.011 142.786 194.592 142.516 194.592C142.245 194.592 142.031 194.219 142.031 193.785C142.031 193.351 142.516 192.84 143.108 192.628L144.184 192.223L142.112 190.394C140.974 189.383 140.358 188.564 140.74 188.564C141.121 188.564 140.603 187.834 139.583 186.949C138.563 186.065 137.726 184.903 137.726 184.366L137.726 183.398ZM112.753 185.012L113.614 185.55C114.088 185.843 114.475 186.424 114.475 186.869C114.475 187.315 114.088 187.703 113.614 187.703H112.753V186.358V185.012ZM118.781 185.12H119.642H120.503V186.411V187.703H119.642H118.781V186.411V185.12ZM124.917 185.793L125.482 186.358L126.047 186.923L124.782 187.73L123.517 188.564L124.782 189.372L126.047 190.179L125.373 190.851L124.701 191.523L123.84 190.258L122.953 188.994L122.522 190.071C122.281 190.662 121.718 191.147 121.284 191.147C120.85 191.147 120.503 190.92 120.503 190.662C120.503 190.404 121.497 189.211 122.71 187.998L124.917 185.793ZM152.365 185.981C152.839 185.981 153.226 186.369 153.226 186.843C153.226 187.316 152.839 187.703 152.365 187.703C151.891 187.703 151.504 187.316 151.504 186.843C151.504 186.369 151.891 185.981 152.365 185.981ZM95.0741 188.054C95.1139 188.103 95.0719 188.485 94.9672 189.13L94.6711 191.014L95.9629 192.305C96.6739 193.016 97.2545 193.811 97.2545 194.082C97.2545 194.353 96.9635 194.572 96.609 194.566C96.2535 194.56 95.2851 193.72 94.4562 192.682C93.6271 191.645 92.9492 190.476 92.9492 190.099C92.9492 189.722 93.3176 189.427 93.7565 189.427C94.1954 189.427 94.711 188.942 94.9138 188.351C94.9933 188.128 95.0483 188.023 95.0741 188.054ZM82.6956 189.023L83.5832 190.314L84.4711 191.579L84.902 190.503L85.333 189.426H86.5709H87.7818V190.288V191.148H86.4363H85.0908L85.629 192.871C85.9299 193.818 86.0481 194.568 85.8981 194.539C85.7482 194.509 84.724 193.519 83.6108 192.332L81.5926 190.153L82.1308 189.588L82.6956 189.023ZM90.3649 189.427C90.8386 189.427 91.2258 189.814 91.2258 190.288C91.2258 190.761 90.8386 191.149 90.3649 191.149C89.8913 191.149 89.504 190.761 89.504 190.288C89.504 189.814 89.8913 189.427 90.3649 189.427ZM138.372 189.427C138.732 189.427 139.53 190.201 140.121 191.149L141.198 192.871L140.526 192.822C140.166 192.802 139.395 192.257 138.803 191.584C138.212 190.912 137.727 190.146 137.727 189.889C137.727 189.632 138.013 189.427 138.372 189.427ZM74.65 191.149C75.0094 191.149 75.8076 191.924 76.3991 192.871L77.4755 194.594L76.803 194.544C76.4436 194.524 75.6729 193.979 75.0809 193.306C74.4891 192.634 74.0045 191.867 74.0045 191.611C74.0045 191.353 74.2905 191.149 74.65 191.149ZM76.4797 191.149H78.2558H80.0319V192.01V192.871H78.794C78.1118 192.871 77.3106 192.484 77.0179 192.01L76.4797 191.149ZM166.143 191.149C165.67 191.149 165.282 191.536 165.282 192.01C165.282 192.484 165.67 192.871 166.143 192.871C166.617 192.871 167.004 192.484 167.004 192.01C167.004 191.536 166.617 191.149 166.143 191.149ZM107.587 192.575L108.206 193.194L108.824 193.812L123.948 196.315V197.634V198.979L124.055 216.982H101.559V206.649V196.316L107.56 194.997L106.483 193.679L107.021 193.114L107.587 192.575ZM125.671 192.575L127.205 194.351L128.739 196.128L130.864 196.423L132.99 196.746L133.04 205.788C133.06 210.761 132.909 215.314 132.717 215.906L132.368 216.983H129.461H126.528V205.843V194.729L125.452 194.353L124.376 193.948L125.021 193.276L125.671 192.575ZM156.591 192.655L157.99 194.054L159.389 195.453L159.093 196.341L158.798 197.202L157.237 195.372L155.676 193.569L156.134 193.111L156.591 192.655ZM69.6986 192.87C70.1723 192.87 70.5595 193.258 70.5595 193.731C70.5595 194.205 70.1723 194.592 69.6986 194.592C69.225 194.592 68.8377 194.205 68.8377 193.731C68.8377 193.258 69.225 192.87 69.6986 192.87ZM88.6431 192.87C89.1167 192.87 89.504 193.258 89.504 193.731C89.504 194.205 89.1167 194.592 88.6431 194.592C88.1694 194.592 87.7821 194.205 87.7821 193.731C87.7821 193.258 88.1694 192.87 88.6431 192.87ZM92.0874 192.87C92.561 192.87 92.9483 193.258 92.9483 193.731C92.9483 194.205 92.561 194.592 92.0874 194.592C91.6137 194.592 91.2265 194.205 91.2265 193.731C91.2265 193.258 91.6137 192.87 92.0874 192.87ZM115.337 192.87C115.811 192.87 116.198 193.258 116.198 193.731C116.198 194.205 115.811 194.592 115.337 194.592C114.864 194.592 114.476 194.205 114.476 193.731C114.476 193.258 114.864 192.87 115.337 192.87ZM123.087 192.87C123.561 192.87 123.948 193.258 123.948 193.731C123.948 194.205 123.561 194.592 123.087 194.592C122.614 194.592 122.226 194.205 122.226 193.731C122.226 193.258 122.614 192.87 123.087 192.87ZM67.2492 194.162L67.6801 195.239L68.111 196.315H69.3489H70.5599V206.648V216.981H43.8652V206.648V196.315L63.0787 194.942L63.7509 194.189L64.5852 195.48L66.3073 195.451L67.2492 194.162ZM79.0361 194.162L79.9786 195.454L80.8929 196.745L81.8074 195.454L82.749 194.162L83.1799 195.239L83.6108 196.315H90.1231H96.6354L97.7654 197.822L98.9227 199.328L98.9524 206.917L98.9821 214.506L97.7442 215.744L96.5333 216.982H86.3342H76.1352L75.0857 215.259L74.0093 213.537V206.164V198.764L75.2472 197.526C75.9235 196.85 76.8514 196.315 77.3194 196.315C77.7871 196.315 78.3708 195.83 78.611 195.239L79.0361 194.162ZM154.088 194.297L154.599 194.808C154.885 195.094 154.96 195.825 154.761 196.423L154.411 197.499L153.739 196.423L153.067 195.32L153.578 194.808L154.088 194.297ZM73.1426 194.593C73.6163 194.593 74.0036 194.98 74.0036 195.454C74.0036 195.927 73.6163 196.315 73.1426 196.315C72.669 196.315 72.2817 195.927 72.2817 195.454C72.2817 194.98 72.669 194.593 73.1426 194.593ZM99.8373 194.593C100.311 194.593 100.698 194.98 100.698 195.454C100.698 195.927 100.311 196.315 99.8373 196.315C99.3636 196.315 98.9764 195.927 98.9764 195.454C98.9764 194.98 99.3636 194.593 99.8373 194.593ZM161.623 194.593C161.982 194.593 162.767 195.335 163.345 196.261L164.394 197.957L163.722 198.36L163.05 198.764L162 197.122C161.432 196.212 160.978 195.267 160.978 195.023C160.978 194.78 161.263 194.593 161.623 194.593ZM40.4175 196.315C40.8912 196.315 41.2785 196.703 41.2785 197.176C41.2785 197.65 40.8912 198.037 40.4175 198.037C39.9439 198.037 39.5566 197.65 39.5566 197.176C39.5566 196.703 39.9439 196.315 40.4175 196.315ZM160.977 197.93V199.275V200.621H160.116C159.642 200.621 159.255 200.232 159.255 199.787C159.255 199.341 159.642 198.761 160.116 198.468L160.977 197.93ZM154.949 198.791L155.81 199.329C156.284 199.622 156.671 200.008 156.671 200.217C156.671 200.425 156.284 200.621 155.81 200.621H154.949V199.706V198.791ZM136.866 198.898C137.339 198.898 137.727 199.285 137.727 199.759C137.727 200.232 137.339 200.62 136.866 200.62C136.392 200.62 136.005 200.232 136.005 199.759C136.005 199.285 136.392 198.898 136.866 198.898ZM42.143 200.62C42.6167 200.62 43.004 201.008 43.004 201.481C43.004 201.955 42.6167 202.342 42.143 202.342C41.6694 202.342 41.2821 201.955 41.2821 201.481C41.2821 201.008 41.6694 200.62 42.143 200.62ZM123.949 203.204C122.285 204.33 121.654 202.455 123.949 203.204ZM136.866 202.342C137.339 202.342 137.727 202.73 137.727 203.204C137.727 203.677 137.339 204.064 136.866 204.064C136.392 204.064 136.005 203.677 136.005 203.204C136.005 202.73 136.392 202.342 136.866 202.342ZM156.671 202.342C157.145 202.342 157.532 202.73 157.532 203.204C157.532 203.677 157.145 204.064 156.671 204.064C156.198 204.064 155.81 203.677 155.81 203.204C155.81 202.73 156.198 202.342 156.671 202.342ZM161.838 202.342C162.311 202.342 162.699 202.73 162.699 203.204C162.699 203.677 162.311 204.064 161.838 204.064C161.364 204.064 160.977 203.677 160.977 203.204C160.977 202.73 161.364 202.342 161.838 202.342ZM162.699 207.401L163.56 207.94C164.033 208.233 164.42 208.619 164.42 208.827C164.42 209.036 164.033 209.23 163.56 209.23H162.699V208.316V207.401ZM123.948 208.371C122.284 209.497 121.653 207.622 123.948 208.371ZM41.7658 209.232C41.9743 209.232 42.1421 209.619 42.1421 210.093V210.954H41.2276H40.313L40.8512 210.093C41.1441 209.619 41.5572 209.232 41.7658 209.232Z" fill="black"/>
<path d="M27.4236 136.405C27.1928 131.281 31.285 127 36.4145 127H168.5C173.471 127 177.5 131.029 177.5 136V179L173.712 222.776C173.309 227.428 169.415 231 164.745 231H41.7883C37.1045 231 33.2037 227.408 32.8187 222.74L29.5 182.5L27.4236 136.405Z" fill="#45527B"/>
</g>
<defs>
<clipPath id="clip0_114_112">
<rect width="204" height="476.636" fill="white"/>
</clipPath>
</defs>
</svg>
