<svg width="205" height="487" viewBox="0 0 205 487" fill="none" xmlns="http://www.w3.org/2000/svg">
<path d="M63.6673 485.375C44.7057 483.433 37.4734 482.035 31.3085 479.119C24.0798 475.701 18.3684 469.413 15.4026 461.607C12.3329 453.529 8.29769 414.045 2.83696 338.656C1.06231 314.156 1.05119 313.522 0.751516 219.88C0.409924 113.029 0.667449 102.284 4.25393 73.7786C8.30406 41.5891 11.6351 24.215 15.0429 17.5062C18.5517 10.5986 24.9578 6.21576 35.4812 3.52298C45.6535 0.920277 60.898 0.377435 112.594 0.777387C149.43 1.06224 158.428 1.31282 162.813 2.17548C178.481 5.25792 185.524 9.40137 189.511 17.8834C192.642 24.5455 196.888 46.1935 199.943 71.0792C203.456 99.6918 203.361 95.7601 203.361 211.785V320.773L200.816 351.141C192.904 445.575 191.731 455.573 187.502 464.69C183.623 473.052 176.23 478.842 165.767 481.713C154.887 484.698 148.249 485.107 106.183 485.387C84.284 485.533 65.152 485.527 63.6673 485.375Z" fill="#46485D"/>
<path d="M59.7418 485.063C37.7254 483.029 31.5293 481.12 23.5721 473.919C14.6529 465.847 13.6256 462.114 9.83545 423.991C5.82203 383.624 2.17244 333.78 0.935062 302.433C-0.30347 271.059 -0.314817 122.473 0.920009 106.822C3.94061 68.5391 9.42484 31.2537 13.7262 19.7573C15.4347 15.1912 20.8213 8.95374 24.8066 6.92677C28.9856 4.80126 36.5027 2.7773 44.621 1.59168C54.463 0.154447 127.089 -0.581191 146.719 0.557642C166.109 1.68246 178.022 4.73734 184.009 10.1199C189.262 14.843 191.304 19.6633 194.193 34.1664C199.592 61.2656 202.67 88.0739 203.738 117.301C204.689 143.341 204.14 305.015 203.056 318.152C202.644 323.147 201.659 336.508 200.867 347.843C198.273 384.964 194.16 431.486 192.096 447.046C189.87 463.824 186.15 471.172 176.709 477.438C169.039 482.529 159.408 484.364 134.525 485.477C113.343 486.423 71.9932 486.195 59.7418 485.063ZM121.569 314.722C135.56 310.605 147.523 303.365 158.613 292.303C181.047 269.927 192.569 241.061 195.95 198.763C197.574 178.444 196.533 129.705 193.895 102.531C190.534 67.9152 183.862 28.6523 179.612 18.4798C175.889 9.56907 166.063 5.84803 137.637 2.58473C125.571 1.1996 76.8595 1.46616 63.5842 2.99012C43.0458 5.3478 34.085 7.94228 28.7708 13.07C25.2104 16.5048 24.657 17.7123 22.1408 27.5294C18.8262 40.4617 15.3127 61.284 11.8855 88.3086C9.32121 108.527 8.5374 123.391 8.22973 157.63C7.81218 204.09 8.60826 215.332 13.7341 235.366C22.1666 268.325 42.7332 296.307 67.7758 308.893C80.6123 315.344 88.8223 317.154 103.754 316.825C113.704 316.606 116.142 316.319 121.569 314.722Z" fill="#45527B"/>
<path d="M93.3626 277.146C88.8207 276.798 83.2114 275.836 79.5417 274.777C72.0313 272.608 63.8407 267.086 59.8611 261.509L58.371 259.421L55.36 259.633C51.6604 259.893 50.8927 259.603 46.7577 256.388C41.03 251.934 35.8065 245.825 31.8079 238.904C26.9317 230.464 22.4668 213.898 20.425 196.672C19.8148 191.522 18.7822 178.424 18.2588 169.191C17.7755 160.664 17.7879 122.842 18.2771 113.747C18.6488 106.836 20.3411 85.1692 20.9003 80.1593C21.5277 74.5404 25.0886 49.8929 25.8791 45.6976C26.9433 40.0507 28.4586 33.3656 29.0549 31.6872C29.3256 30.9252 29.8416 29.0618 30.2016 27.5458C31.6384 21.4967 35.1275 16.4742 39.3652 14.3551C42.8223 12.6263 53.0707 10.0498 60.0964 9.14289C76.9643 6.9655 94.0423 6.24608 114.415 6.85481C128.021 7.26136 143.974 8.79551 151.456 10.4172C155.379 11.2671 161.817 13.2187 163.846 14.1725C165.888 15.1325 169.116 18.0391 170.164 19.8623C171.218 21.6948 173.021 26.6749 174.017 30.501C175.012 34.321 178.334 52.9569 179.468 61.0774C180.893 71.2835 183.844 100.684 184.545 111.658C185.104 120.416 185.102 160.216 184.542 169.994C184.092 177.847 183.003 189.149 181.754 198.921C179.086 219.792 175.177 232.441 168.037 243.309C165.029 247.889 158.367 254.629 153.958 257.555L150.914 259.575L147.684 259.355C144.013 259.105 144.011 259.106 142.731 261.816C140.351 266.858 128.836 273.767 119.879 275.527C110.817 277.309 102.289 277.829 93.3626 277.146ZM107.183 274.933C112.537 274.597 118.571 273.715 122.745 272.657C127.831 271.368 134.987 267.235 139.077 263.224C141.101 261.239 141.449 260.742 141.359 259.962C141.143 258.09 137.588 256.941 127.593 255.517C119.731 254.396 113.661 254.044 102.256 254.045C87.6267 254.048 79.7413 254.636 69.4378 256.496C63.8744 257.5 62.7106 257.873 61.9751 258.892C61.1281 260.066 61.5592 261.335 63.4421 263.211C67.6462 267.401 74.6308 271.401 80.1898 272.803C88.4288 274.881 97.0953 275.565 107.183 274.933Z" fill="#45527B"/>
<path d="M94.732 316.827C69.7567 314.001 47.5389 299.233 31.2981 274.663C20.5884 258.46 13.5481 239.258 10.3315 217.479C8.64353 206.05 8.22644 195.606 8.22644 164.769C8.22644 134.377 8.34061 131.086 10.1262 109.975C11.1549 97.8128 12.3096 86.961 13.6285 77.0578C14.3193 71.8711 15.6017 62.8695 15.9436 60.8073C17.3403 52.3839 19.8035 38.7051 20.3707 36.2233C22.932 25.015 24.4049 19.5762 25.4063 17.6312C26.8898 14.7493 30.1059 11.5787 33.2522 9.89595C35.5547 8.66448 41.4481 6.71521 44.4399 6.19552C45.1481 6.07255 47.0401 5.70259 48.6443 5.3735C54.3921 4.19437 67.9726 2.70248 76.7713 2.28366C90.8079 1.61541 123.121 1.71129 131.772 2.44681C135.782 2.78782 139.72 3.15859 140.522 3.27068C141.324 3.38289 142.918 3.58715 144.064 3.72471C145.21 3.86239 146.522 4.05009 146.981 4.14192C147.439 4.23374 148.756 4.40732 149.908 4.52751C151.06 4.64771 153.497 5.0245 155.325 5.3647C157.152 5.7049 159.116 6.06491 159.689 6.16449C162.657 6.68093 166.503 7.9146 169.481 9.30563C171.315 10.1619 172.952 10.8996 173.121 10.945C173.912 11.1581 177.594 15.1877 178.636 16.9817C179.725 18.855 183.081 30.5455 183.677 34.5404C183.813 35.4563 183.993 36.3161 184.077 36.4509C184.26 36.7479 187.991 57.8542 188.639 62.2657C189.515 68.2245 190.517 75.283 190.707 76.8495C190.833 77.8808 191.304 81.7247 191.754 85.3914C193.175 96.9806 194.095 106.844 195.376 124.231C196.152 134.773 196.738 177.624 196.258 188.717C195.192 213.326 191.806 232.716 185.73 249.001C172.036 285.704 144.654 311.165 113.438 316.224C108.389 317.042 99.2424 317.337 94.732 316.827ZM114.16 276.654C120.701 275.728 124.578 274.658 129.025 272.551C136.097 269.201 140.684 265.677 142.868 261.915C143.486 260.851 144.195 259.832 144.444 259.651C144.693 259.47 146.255 259.439 147.914 259.582L150.931 259.842L153.713 257.896C165.302 249.795 173.017 238.362 177.333 222.895C180.587 211.233 183.55 189.816 184.682 169.769C185.226 160.142 185.223 118.43 184.677 109.968C182.37 74.1859 176.451 34.3127 171.689 22.4729C170.136 18.61 167.718 15.8854 164.315 14.161C159.045 11.4903 147.655 9.05343 135.105 7.91136C131.324 7.56722 127.105 7.18197 125.73 7.05518C116.562 6.21011 80.6296 6.47273 73.2284 7.43903C72.5408 7.52889 70.4783 7.72354 68.6449 7.87176C61.9644 8.4117 52.2367 10.0818 46.7693 11.6275C45.5088 11.9838 44.1025 12.3628 43.6442 12.4695C43.1859 12.5762 42.4358 12.8225 41.9775 13.0167C36.6841 15.26 34.2729 17.3627 32.328 21.4312C31.0014 24.2066 28.5844 31.6002 27.8329 35.1816C27.7127 35.7546 27.1599 38.3796 26.6044 41.0151C26.049 43.6506 25.4786 46.557 25.3368 47.4736C25.1093 48.9325 24.8787 50.3909 24.645 51.8488C24.4063 53.3384 24.1427 55.0259 24.0593 55.5989C23.9758 56.1718 23.5313 59.1719 23.0712 62.2657C22.6112 65.3596 22.143 68.6409 22.0308 69.5576C21.9185 70.4742 21.6336 72.6306 21.3978 74.3494C20.6562 79.7523 19.9827 86.3834 19.493 93.0999C19.3597 94.9061 19.2189 96.7117 19.0707 98.5167C17.9649 111.833 17.81 117.41 17.8378 142.893C17.8659 168.748 18.1617 175.923 19.9128 193.228C21.5228 209.139 25.4854 225.94 29.8618 235.412C33.1478 242.525 40.1605 251.36 46.5112 256.388C50.313 259.399 51.2492 259.771 55.0153 259.771H58.3026L60.2099 262.227C64.5611 267.831 72.069 272.701 79.8178 274.946C83.0986 275.897 89.4653 276.992 94.2707 277.432C97.9017 277.764 109.533 277.309 114.16 276.654Z" fill="#CCCCCC"/>
<path d="M152.841 376.583C152.825 376.576 152.265 376.519 151.595 376.455C150.18 376.322 149.82 376.28 149.117 376.167C147.457 375.902 146.105 375.496 144.877 374.893C144.02 374.473 143.404 374.041 142.766 373.412C141.859 372.517 141.585 371.912 141.549 370.725C141.511 369.498 141.708 368.458 142.213 367.216C142.857 365.631 143.87 364.121 145.207 362.751C149.009 358.856 154.308 355.769 159.859 354.214C162.454 353.487 164.895 353.028 167.293 352.816C167.859 352.765 170.049 352.766 170.53 352.817C172.465 353.019 173.883 353.445 175.153 354.204C176.477 354.995 177.628 356.243 178.318 357.635C178.816 358.639 179.02 359.535 179.019 360.714C179.018 361.575 178.935 362.199 178.691 363.178C178.01 365.902 176.606 368.153 174.422 370.024C170.819 373.111 164.329 375.473 157.31 376.252C156.009 376.396 152.934 376.625 152.841 376.584V376.583ZM150.664 411.073C150.648 411.066 150.087 411.008 149.418 410.945C148.003 410.811 147.643 410.77 146.94 410.657C145.279 410.391 143.927 409.985 142.699 409.383C141.843 408.963 141.227 408.531 140.589 407.901C139.682 407.006 139.408 406.402 139.372 405.215C139.334 403.987 139.53 402.948 140.036 401.706C140.68 400.121 141.693 398.611 143.03 397.241C146.832 393.346 152.131 390.259 157.682 388.704C160.277 387.977 162.718 387.518 165.116 387.305C165.682 387.255 167.872 387.255 168.353 387.306C170.288 387.509 171.706 387.934 172.976 388.693C174.3 389.485 175.451 390.732 176.141 392.124C176.639 393.129 176.843 394.024 176.842 395.204C176.841 396.064 176.758 396.689 176.513 397.667C175.832 400.391 174.429 402.643 172.245 404.514C168.642 407.601 162.152 409.963 155.133 410.741C153.832 410.886 150.756 411.114 150.664 411.073V411.073ZM148.831 445.562C148.815 445.555 148.254 445.498 147.585 445.435C146.17 445.301 145.81 445.259 145.107 445.147C143.446 444.881 142.094 444.475 140.866 443.872C140.009 443.452 139.394 443.02 138.756 442.391C137.849 441.496 137.575 440.891 137.538 439.704C137.501 438.477 137.697 437.438 138.202 436.195C138.846 434.611 139.859 433.1 141.197 431.73C144.999 427.835 150.297 424.748 155.849 423.193C158.443 422.467 160.884 422.007 163.282 421.795C163.848 421.745 166.038 421.745 166.52 421.796C168.455 421.998 169.873 422.424 171.142 423.183C172.467 423.974 173.618 425.222 174.308 426.614C174.806 427.618 175.009 428.514 175.009 429.693C175.007 430.554 174.925 431.178 174.68 432.157C173.999 434.881 172.595 437.132 170.411 439.003C166.809 442.09 160.318 444.452 153.299 445.231C151.998 445.375 148.923 445.604 148.831 445.563V445.562ZM154.674 342.208C154.659 342.201 154.098 342.144 153.428 342.081C152.014 341.947 151.654 341.905 150.95 341.792C149.29 341.527 147.938 341.12 146.71 340.518C145.853 340.098 145.238 339.666 144.6 339.037C143.692 338.142 143.418 337.537 143.382 336.35C143.344 335.123 143.541 334.084 144.046 332.841C144.69 331.257 145.703 329.746 147.04 328.376C150.843 324.481 156.141 321.394 161.693 319.839C164.287 319.112 166.728 318.653 169.126 318.44C169.692 318.39 171.882 318.391 172.363 318.442C174.298 318.644 175.716 319.07 176.986 319.829C178.311 320.62 179.462 321.868 180.151 323.26C180.649 324.264 180.853 325.16 180.852 326.339C180.851 327.2 180.769 327.824 180.524 328.803C179.843 331.527 178.439 333.778 176.255 335.649C172.653 338.736 166.162 341.098 159.143 341.877C157.842 342.021 154.767 342.25 154.674 342.209V342.208ZM50.9078 376.879C50.9236 376.871 51.4844 376.814 52.1539 376.751C53.5686 376.617 53.9287 376.575 54.6319 376.463C56.2924 376.197 57.6444 375.791 58.8724 375.189C59.7293 374.768 60.3446 374.336 60.9825 373.707C61.8897 372.812 62.1639 372.207 62.2003 371.021C62.2379 369.793 62.0414 368.754 61.5363 367.512C60.8922 365.927 59.8793 364.417 58.5419 363.047C54.7398 359.152 49.4412 356.064 43.8896 354.509C41.2953 353.783 38.8542 353.324 36.4561 353.111C35.8903 353.061 33.7004 353.061 33.2191 353.112C31.2838 353.315 29.866 353.74 28.5963 354.499C27.2717 355.291 26.1207 356.538 25.4309 357.93C24.933 358.934 24.7292 359.83 24.73 361.009C24.7307 361.87 24.8138 362.494 25.0584 363.473C25.7395 366.197 27.1433 368.449 29.3272 370.32C32.9298 373.406 39.4204 375.768 46.4391 376.547C47.7404 376.692 50.8154 376.92 50.9078 376.879V376.879ZM53.085 411.368C53.1008 411.361 53.6614 411.304 54.331 411.24C55.7457 411.107 56.1058 411.065 56.8089 410.952C58.4695 410.687 59.8215 410.28 61.0495 409.678C61.9064 409.258 62.5216 408.826 63.1595 408.197C64.0669 407.302 64.341 406.697 64.3775 405.51C64.4151 404.282 64.2185 403.243 63.7134 402.001C63.0692 400.416 62.0564 398.906 60.719 397.536C56.9169 393.641 51.6182 390.554 46.0667 388.999C43.4724 388.272 41.0312 387.813 38.6331 387.6C38.0673 387.55 35.8775 387.551 35.3961 387.602C33.461 387.804 32.0432 388.229 30.7734 388.989C29.4487 389.78 28.2977 391.028 27.6079 392.419C27.1101 393.424 26.9062 394.32 26.907 395.499C26.9077 396.36 26.9908 396.984 27.2355 397.963C27.9166 400.686 29.3204 402.938 31.5044 404.809C35.1068 407.896 41.5974 410.258 48.6162 411.037C49.9175 411.181 52.9925 411.409 53.0849 411.369L53.085 411.368ZM54.9183 445.858C54.934 445.851 55.4948 445.793 56.1643 445.73C57.5791 445.596 57.9391 445.555 58.6423 445.442C60.3028 445.176 61.6548 444.77 62.8828 444.168C63.7397 443.748 64.355 443.316 64.9929 442.686C65.9001 441.791 66.1744 441.187 66.2107 440C66.2483 438.772 66.0518 437.733 65.5467 436.491C64.9026 434.906 63.8897 433.396 62.5523 432.026C58.7502 428.131 53.4516 425.044 47.9001 423.489C45.3057 422.762 42.8646 422.303 40.4665 422.09C39.9007 422.04 37.7108 422.04 37.2295 422.091C35.2943 422.294 33.8764 422.719 32.6067 423.478C31.2821 424.27 30.1311 425.517 29.4413 426.909C28.9434 427.914 28.7396 428.809 28.7404 429.989C28.7411 430.849 28.8242 431.474 29.0688 432.452C29.7499 435.176 31.1538 437.428 33.3376 439.299C36.9402 442.385 43.4308 444.748 50.4495 445.526C51.7508 445.671 54.8259 445.899 54.9183 445.858V445.858ZM49.0745 342.504C49.0902 342.496 49.651 342.439 50.3207 342.376C51.7353 342.242 52.0954 342.2 52.7985 342.088C54.4591 341.822 55.8111 341.416 57.0391 340.814C57.896 340.394 58.5112 339.961 59.1491 339.332C60.0565 338.437 60.3306 337.833 60.3669 336.646C60.4047 335.418 60.2081 334.379 59.703 333.136C59.0588 331.552 58.046 330.042 56.7085 328.672C52.9065 324.777 47.6078 321.689 42.0563 320.134C39.462 319.408 37.0208 318.948 34.6227 318.736C34.0569 318.686 31.867 318.686 31.3857 318.737C29.4505 318.94 28.0328 319.365 26.763 320.124C25.4383 320.916 24.2873 322.163 23.5975 323.555C23.0997 324.559 22.8958 325.455 22.8966 326.634C22.8973 327.495 22.9804 328.119 23.2251 329.098C23.9062 331.822 25.31 334.074 27.494 335.945C31.0964 339.031 37.587 341.393 44.6058 342.172C45.9071 342.317 48.9821 342.545 49.0745 342.504V342.504Z" fill="#CCCCCC"/>
<path d="M100.017 453.092C96.1053 452.669 93.9672 452.07 90.64 450.466C85.2913 447.887 82.2574 444.925 81.651 441.689C81.4571 440.654 81.5561 439.303 81.8913 438.412C82.4969 436.804 84.6325 434.966 87.1684 433.872C88.9143 433.119 91.7343 432.363 94.0587 432.026C95.3368 431.84 96.5594 431.804 101.421 431.807C108.509 431.81 109.875 431.912 112.868 432.659C115.791 433.388 118.109 434.511 119.94 436.086C122.089 437.933 122.951 439.829 122.444 441.596C122.11 442.762 121.116 444.452 119.939 445.856C119.093 446.865 117.869 448.04 117.205 448.48C116.561 448.906 113.21 450.594 111.908 451.148C109.254 452.277 107.34 452.707 103.455 453.044C102.561 453.122 100.552 453.15 100.017 453.092ZM100.017 418.738C96.1053 418.316 93.9672 417.717 90.64 416.113C85.2913 413.534 82.2574 410.571 81.651 407.336C81.4571 406.301 81.5561 404.949 81.8913 404.059C82.4969 402.45 84.6325 400.613 87.1684 399.519C88.9143 398.765 91.7343 398.01 94.0587 397.672C95.3368 397.487 96.5594 397.45 101.421 397.453C108.509 397.456 109.875 397.559 112.868 398.305C115.791 399.035 118.109 400.158 119.94 401.732C122.089 403.579 122.951 405.475 122.444 407.242C122.11 408.409 121.116 410.099 119.939 411.502C119.093 412.512 117.869 413.687 117.205 414.126C116.561 414.553 113.21 416.24 111.908 416.794C109.254 417.924 107.34 418.353 103.455 418.691C102.561 418.768 100.552 418.796 100.017 418.738ZM99.3689 384.061C95.4571 383.638 93.319 383.039 89.9919 381.435C84.6431 378.856 81.6092 375.894 81.0028 372.658C80.8088 371.623 80.908 370.271 81.2432 369.381C81.8487 367.772 83.9843 365.935 86.5201 364.841C88.2662 364.088 91.0861 363.332 93.4106 362.995C94.6886 362.809 95.9113 362.773 100.773 362.775C107.861 362.779 109.227 362.881 112.22 363.628C115.143 364.357 117.461 365.48 119.292 367.054C121.441 368.901 122.303 370.797 121.796 372.564C121.462 373.731 120.468 375.421 119.291 376.825C118.445 377.834 117.22 379.009 116.556 379.449C115.913 379.875 112.562 381.563 111.26 382.117C108.606 383.246 106.692 383.675 102.806 384.013C101.913 384.09 99.9034 384.118 99.3689 384.061V384.061ZM99.958 349.395C96.0463 348.972 93.9081 348.373 90.5809 346.769C85.2323 344.19 82.1984 341.228 81.5918 337.992C81.398 336.957 81.4971 335.606 81.8322 334.715C82.4378 333.106 84.5734 331.269 87.1092 330.175C88.8554 329.422 91.6753 328.666 93.9996 328.329C95.2778 328.143 96.5003 328.107 101.362 328.109C108.45 328.113 109.816 328.215 112.809 328.962C115.732 329.691 118.05 330.814 119.881 332.388C122.03 334.235 122.892 336.131 122.385 337.898C122.051 339.065 121.057 340.755 119.88 342.159C119.034 343.168 117.81 344.343 117.146 344.783C116.502 345.209 113.151 346.897 111.849 347.451C109.195 348.58 107.281 349.009 103.395 349.347C102.502 349.425 100.493 349.452 99.958 349.395Z" fill="#CCCCCC"/>
<path d="M99.3148 266.475C95.3431 266.383 90.3124 265.87 87.0867 265.229C85.0994 264.834 84.3186 264.457 83.7805 263.634C83.4539 263.134 83.4239 262.946 83.6184 262.614C83.8399 262.236 84.3891 261.754 84.6542 261.704C84.9528 261.648 86.1109 261.715 87.3253 261.858C91.5435 262.356 93.8989 262.53 97.9514 262.643C103.042 262.786 108.303 262.518 114.496 261.801C116.994 261.512 117.238 261.49 118.015 261.484C118.843 261.478 119.106 261.538 119.344 261.786C119.675 262.132 119.846 262.939 119.742 263.67C119.661 264.243 119.509 264.505 119.133 264.722C117.75 265.521 113.03 266.097 105.489 266.389C103.762 266.456 100.472 266.502 99.3148 266.475Z" fill="#1896AE"/>
<path d="M95.8552 275.037C88.7825 274.683 81.4122 273.412 77.2204 271.824C72.391 269.994 67.2286 266.797 63.8384 263.537C62.8439 262.581 62.2352 261.833 61.8959 261.151C61.6338 260.623 61.6178 260.564 61.6178 260.107C61.6177 259.695 61.6433 259.57 61.788 259.274C62.1586 258.515 62.9099 258.006 64.211 257.631C66.5119 256.968 73.7511 255.715 78.5269 255.152C85.159 254.371 91.2803 254.099 102.238 254.099C114.876 254.097 120.274 254.438 129.334 255.809C136.24 256.854 139.541 257.759 140.741 258.937C141.189 259.376 141.308 259.633 141.308 260.162C141.308 260.536 141.286 260.619 141.1 260.928C140.685 261.617 138.794 263.527 137.282 264.784C133.482 267.946 127.966 271.029 123.801 272.318C120.053 273.479 113.014 274.542 106.324 274.959C104.537 275.07 97.5593 275.122 95.8552 275.037ZM106.175 266.392C112.12 266.134 116.33 265.684 118.253 265.102C119.445 264.741 119.7 264.464 119.785 263.434C119.858 262.555 119.532 261.723 119.048 261.552C118.621 261.401 117.179 261.462 114.794 261.731C109.211 262.362 106.253 262.564 101.85 262.616C96.8644 262.675 93.3369 262.498 88.3692 261.941C86.5006 261.732 84.8833 261.629 84.5948 261.702C84.3626 261.76 83.8769 262.172 83.6667 262.49C83.4062 262.883 83.4148 263.116 83.7068 263.565C84.2053 264.332 84.8432 264.714 86.196 265.055C88.486 265.632 93.3446 266.221 97.7044 266.45C98.9278 266.515 104.185 266.479 106.175 266.392Z" fill="#999999"/>
<path d="M55.7088 300.92C51.7262 297.908 49.713 296.147 45.5948 292.073C39.8117 286.353 34.022 279.046 29.666 271.971L28.9572 270.82L29.6044 270.153C30.6876 269.037 31.8767 268.29 35.2606 266.598C39.362 264.547 40.0878 264.246 41.4152 264.049C42.9265 263.824 43.3825 263.984 45.0574 265.332C49.1016 268.585 53.4733 271.663 57.2385 273.907C58.469 274.64 61.4709 276.244 63.9096 277.471C68.1063 279.583 68.3987 279.757 69.3769 280.721C70.7575 282.083 70.9783 282.598 70.9812 284.466C70.9827 285.445 70.9145 286.072 70.7776 286.334C70.2619 287.322 62.2696 297.885 60.673 299.688C60.0653 300.374 59.1682 301.287 58.6794 301.715L57.7907 302.494L55.7088 300.92ZM117.636 314.197C117.244 313.673 116.835 313.031 116.726 312.77C116.618 312.51 116.223 310.146 115.85 307.516C115.477 304.885 114.813 300.446 114.373 297.651C113.315 290.918 113.219 290.136 113.296 288.805C113.348 287.923 113.449 287.525 113.755 287.002C114.779 285.254 116.929 284.168 120.65 283.517C122.942 283.117 127.806 281.888 130.394 281.056C133.656 280.007 139.398 277.67 142.317 276.203C146.315 274.194 152.801 270.043 155.988 267.454C158.566 265.359 159.278 264.836 160.15 264.398C160.843 264.05 161.065 264.017 162.623 264.024C164.19 264.032 164.435 264.072 165.502 264.498C167.018 265.103 170.617 266.986 172.127 267.964C172.779 268.386 173.753 269.144 174.292 269.648L175.272 270.564L174.81 271.328C168.615 281.563 159.919 291.65 151.285 298.615C143.033 305.271 134.107 310.242 124.886 313.316C123.133 313.9 119.809 314.847 118.716 315.075C118.4 315.141 118.248 315.017 117.636 314.198L117.636 314.197Z" fill="black"/>
<path d="M53.9612 299.43C50.4283 296.758 48.6423 295.196 44.9891 291.583C39.8588 286.508 34.7228 280.027 30.8587 273.75L30.23 272.729L30.8042 272.137C31.7649 271.148 32.8197 270.485 35.8217 268.983C39.4599 267.164 40.104 266.897 41.2813 266.722C42.6221 266.523 43.0266 266.665 44.5123 267.861C48.1 270.747 51.978 273.477 55.3182 275.467C56.4097 276.118 59.0727 277.541 61.236 278.629C64.9589 280.503 65.2183 280.657 66.0861 281.513C67.3108 282.72 67.5066 283.178 67.5093 284.834C67.5105 285.703 67.4501 286.259 67.3286 286.491C66.8712 287.368 59.7812 296.738 58.365 298.338C57.8259 298.947 57.03 299.756 56.5964 300.136L55.808 300.827L53.9612 299.43Z" fill="#B3B3B3"/>
<path d="M120.392 313.098C120.027 312.61 119.646 312.012 119.545 311.769C119.444 311.527 119.077 309.325 118.729 306.877C118.382 304.428 117.763 300.294 117.354 297.692C116.368 291.423 116.28 290.694 116.352 289.455C116.399 288.634 116.493 288.263 116.778 287.777C117.732 286.149 119.733 285.138 123.199 284.532C125.332 284.159 129.861 283.015 132.271 282.24C135.308 281.263 140.654 279.088 143.372 277.722C147.095 275.851 153.134 271.986 156.101 269.575C158.501 267.625 159.164 267.138 159.976 266.73C160.622 266.406 160.828 266.375 162.279 266.382C163.738 266.388 163.966 266.427 164.96 266.823C166.371 267.387 169.722 269.14 171.128 270.05C171.735 270.443 172.643 271.149 173.144 271.618L174.056 272.471L173.626 273.182C167.858 282.712 159.761 292.104 151.722 298.589C144.039 304.787 135.728 309.415 127.142 312.277C125.511 312.821 122.416 313.703 121.398 313.915C121.103 313.976 120.962 313.862 120.392 313.098Z" fill="#B3B3B3"/>
<path d="M76.2737 74.9348H124.95V88.4123H76.2737V74.9348Z" fill="black"/>
<path d="M99.9404 377.56C99.3204 377.515 98.8918 377.43 98.0213 377.181C97.8395 377.129 97.8314 377.088 97.8314 376.208C97.8314 375.216 97.8701 375.147 98.2774 375.411C98.7049 375.688 99.7549 375.965 100.377 375.964C101.174 375.963 101.573 375.848 101.939 375.513C102.517 374.984 102.383 374.033 101.679 373.667C101.106 373.369 99.562 373.365 98.3588 373.659L98.1689 373.706V368.879H104.243V370.482H100.194V371.893L101.227 371.938C103.432 372.035 104.44 372.849 104.44 374.531C104.439 375.384 104.187 376.028 103.64 376.575C102.825 377.391 101.704 377.689 99.9404 377.56ZM162.575 334.538C162.157 334.503 161.512 334.386 161.141 334.278L160.466 334.082L160.442 333.175C160.415 332.156 160.428 332.139 160.996 332.428C161.622 332.746 162.444 332.943 163.143 332.943C164.004 332.943 164.417 332.818 164.73 332.462C164.941 332.221 164.979 332.108 164.979 331.713C164.979 330.921 164.544 330.667 163.186 330.666H162.448V329.232L162.849 329.23C163.533 329.228 164.328 329.079 164.551 328.912C164.821 328.711 164.949 328.218 164.816 327.896C164.5 327.133 162.808 327.088 161.279 327.801C160.984 327.939 160.727 328.051 160.709 328.051C160.691 328.051 160.677 327.636 160.677 327.129V326.207L161.158 326.067C163.29 325.448 165.454 325.618 166.4 326.479C166.957 326.987 167.091 327.97 166.706 328.73C166.478 329.181 165.975 329.607 165.565 329.697C165.2 329.777 165.26 329.879 165.759 330.025C166.625 330.278 167.167 330.963 167.17 331.811C167.179 333.755 165.453 334.779 162.575 334.538V334.538ZM160.981 369.797C159.004 369.583 157.936 367.95 158.091 365.378C158.119 364.914 158.198 364.331 158.266 364.082C158.673 362.587 159.638 361.603 161.141 361.149C161.676 360.987 163.598 360.927 164.072 361.058L164.304 361.122V361.921C164.304 362.361 164.281 362.721 164.254 362.721C164.226 362.721 163.993 362.66 163.735 362.585C163.406 362.489 163.049 362.459 162.541 362.483C161.652 362.526 161.052 362.808 160.67 363.363C160.425 363.72 160.179 364.445 160.272 364.538C160.3 364.566 160.478 364.509 160.669 364.412C161.916 363.776 163.396 363.906 164.248 364.729C165.364 365.806 165.291 367.851 164.096 368.952C163.477 369.522 162.944 369.729 161.816 369.836C161.676 369.849 161.301 369.832 160.981 369.797ZM162.195 368.309C163.053 367.881 163.118 366.13 162.294 365.647C161.944 365.441 161.215 365.376 160.686 365.502C160.152 365.631 160.106 365.759 160.239 366.75C160.394 367.908 160.833 368.457 161.605 368.457C161.767 368.457 162.033 368.391 162.195 368.309ZM156.48 404.332L156.206 404.298V403.46C156.206 402.999 156.22 402.621 156.237 402.621C156.255 402.621 156.435 402.683 156.638 402.759C157.155 402.952 158.318 402.954 158.873 402.763C159.578 402.522 160.123 401.861 160.295 401.042L160.352 400.771L159.776 401.036C158.98 401.403 157.924 401.463 157.183 401.184C156.556 400.948 156.03 400.469 155.773 399.899C155.605 399.528 155.574 399.325 155.576 398.615C155.578 397.861 155.603 397.723 155.811 397.325C156.461 396.076 157.68 395.457 159.288 395.557C160.716 395.646 161.709 396.325 162.186 397.537C162.451 398.209 162.563 399.352 162.453 400.254C162.178 402.523 161.139 403.814 159.228 404.265C158.729 404.382 157.189 404.42 156.48 404.332ZM160.083 399.826L160.358 399.73L160.325 398.919C160.272 397.596 159.835 396.937 159.009 396.937C158.189 396.937 157.724 397.496 157.724 398.481C157.724 399.512 158.137 399.912 159.209 399.918C159.538 399.922 159.932 399.879 160.083 399.826ZM154.352 437.903C154.353 437.868 154.463 437.413 154.596 436.891L154.838 435.942H153.253V434.677H155.16L155.353 433.876C155.46 433.436 155.566 432.999 155.591 432.906C155.633 432.744 155.595 432.736 154.782 432.736H153.928V431.471H155.946L156.034 431.134C156.082 430.948 156.157 430.654 156.2 430.48C156.243 430.306 156.321 430.002 156.372 429.805L156.465 429.447H157.79L157.548 430.396C157.415 430.918 157.305 431.373 157.304 431.408C157.303 431.443 157.662 431.471 158.101 431.471H158.899L158.992 431.113C159.05 430.888 159.108 430.663 159.164 430.438C159.207 430.264 159.282 429.97 159.33 429.784L159.418 429.447H160.743L160.501 430.396C160.368 430.918 160.258 431.373 160.257 431.408C160.256 431.443 160.578 431.471 160.972 431.471H161.689V432.731L160.787 432.755L159.886 432.779L159.695 433.538L159.456 434.487C159.409 434.674 159.419 434.676 160.253 434.676H161.098V435.942H159.094L158.848 436.933L158.601 437.924L157.952 437.949C157.595 437.962 157.303 437.943 157.304 437.907C157.305 437.87 157.399 437.479 157.513 437.038C157.818 435.862 157.86 435.942 156.939 435.942H156.154L155.911 436.954L155.667 437.966H155.009C154.646 437.966 154.351 437.938 154.352 437.903L154.352 437.903ZM158.346 433.793C158.468 433.308 158.568 432.87 158.568 432.82C158.568 432.761 158.288 432.739 157.751 432.755L156.933 432.779L156.742 433.538C156.637 433.955 156.53 434.383 156.504 434.487C156.456 434.674 156.467 434.677 157.29 434.677H158.125L158.346 433.793ZM100.531 412.314C98.9858 412.081 98.0032 411.153 98.0011 409.924C97.9995 409.051 98.4289 408.459 99.3607 408.047C99.5404 407.968 99.6855 407.882 99.6833 407.856C99.681 407.831 99.4682 407.676 99.2102 407.514C98.4267 407.021 98.047 406.133 98.2595 405.289C98.4542 404.516 99.372 403.785 100.43 403.56C101.407 403.352 103.064 403.497 103.746 403.849C104.14 404.053 104.678 404.575 104.804 404.875C104.958 405.243 104.947 405.95 104.782 406.297C104.621 406.636 104.097 407.128 103.691 407.322C103.53 407.398 103.399 407.485 103.399 407.513C103.399 407.542 103.557 407.635 103.749 407.72C105.095 408.314 105.567 409.866 104.77 411.073C104.495 411.489 103.799 411.957 103.157 412.157C102.527 412.353 101.282 412.427 100.531 412.314L100.531 412.314ZM102.447 410.795C102.899 410.576 103.098 410.231 103.036 409.771C102.964 409.238 102.679 409.015 101.498 408.571C100.724 408.279 100.654 408.29 100.36 408.754C99.9356 409.423 100.039 410.32 100.583 410.676C101.103 411.017 101.885 411.067 102.447 410.795ZM102.549 406.786C103.001 406.211 102.951 405.372 102.445 405.064C101.889 404.724 101.057 404.751 100.616 405.123C100.404 405.301 100.362 405.397 100.362 405.712C100.362 406.198 100.585 406.411 101.447 406.749C102.242 407.061 102.331 407.063 102.549 406.786ZM100.076 445.886C98.5562 445.722 97.6413 444.77 97.3251 443.026C97.1889 442.275 97.2056 440.488 97.3555 439.769C97.613 438.533 98.2732 437.667 99.2532 437.276C99.6561 437.116 99.8857 437.087 100.742 437.089C102.007 437.093 102.543 437.271 103.167 437.896C103.876 438.604 104.148 439.433 104.215 441.088C104.315 443.521 103.725 445.008 102.422 445.612C102.038 445.79 101.759 445.848 100.911 445.926C100.771 445.939 100.396 445.921 100.076 445.886ZM101.374 444.219C101.759 443.954 101.957 443.408 102.038 442.393C102.153 440.948 101.997 439.509 101.672 439.012C101.328 438.488 100.406 438.406 99.9334 438.859C99.5123 439.262 99.3973 439.822 99.3973 441.467C99.3973 443.111 99.5159 443.687 99.9421 444.113C100.313 444.484 100.925 444.529 101.374 444.219ZM44.59 437.238C44.6174 435.782 44.6039 435.509 44.5074 435.568C44.444 435.606 43.8122 436.072 43.1035 436.603C42.3949 437.134 41.8037 437.554 41.79 437.536C41.6581 437.362 40.9756 436.118 40.9756 436.051C40.9756 436.004 41.6495 435.519 42.4729 434.975C43.2964 434.43 43.9788 433.96 43.9892 433.93C43.9997 433.9 43.326 433.424 42.492 432.872C41.658 432.32 40.9756 431.831 40.9756 431.786C40.9756 431.599 41.7841 430.293 41.8781 430.328C41.9337 430.349 42.5515 430.804 43.2512 431.34C43.9508 431.876 44.546 432.315 44.5736 432.315C44.6014 432.315 44.6078 431.537 44.5878 430.585L44.5514 428.856H46.3416L46.3052 430.585C46.2852 431.537 46.2915 432.315 46.3192 432.315C46.347 432.315 46.9836 431.858 47.7338 431.3C48.4841 430.743 49.1076 430.296 49.1195 430.309C49.1809 430.375 50.0014 431.773 50.0016 431.812C50.0016 431.837 49.2999 432.312 48.4419 432.867C47.5841 433.421 46.8841 433.894 46.8865 433.917C46.8891 433.941 47.5909 434.415 48.4463 434.972C49.3017 435.528 50.0017 436.009 50.0017 436.041C50.0017 436.072 49.8074 436.423 49.57 436.82C49.3035 437.266 49.1018 437.521 49.0428 437.485C48.9903 437.454 48.3968 437.006 47.7242 436.49C47.0514 435.974 46.448 435.521 46.3833 435.482C46.2835 435.422 46.2721 435.683 46.3084 437.195L46.3512 438.979H44.5571L44.59 437.238ZM40.5027 403.823C40.5696 403.696 41.4639 402.149 42.4898 400.386L44.3553 397.18L42.1171 397.158L39.879 397.135V395.535H46.6275V397.14L44.6743 400.598L42.7212 404.055H40.3808L40.5027 403.823ZM40.6382 368.373V367.361H36.5048L36.5076 366.538L36.5105 365.716L38.5058 363.248L40.5012 360.781H42.6628V365.842H43.8439V367.361H42.6628V369.385H40.6383L40.6382 368.373ZM40.6382 364.239C40.6382 363.358 40.6232 362.637 40.6049 362.637C40.5866 362.637 40.1244 363.197 39.5775 363.881C39.1504 364.416 38.7223 364.95 38.2931 365.484L38.0028 365.842H40.6383L40.6382 364.239ZM36.1674 333.492V332.775H38.0232V328.135H36.1674V326.882L36.6524 326.829C37.3834 326.748 37.8431 326.555 38.03 326.248C38.1187 326.103 38.1914 325.918 38.1916 325.836C38.1918 325.705 38.2924 325.689 39.1198 325.689H40.0477V332.775H41.8191V334.209H36.1674V333.492ZM98.4238 341.653L98.4257 340.999L98.7433 340.775C99.494 340.244 100.818 339.139 101.403 338.553C102.446 337.51 102.806 336.519 102.391 335.837C102.103 335.365 101.854 335.263 100.992 335.263C100.257 335.263 100.191 335.279 99.4996 335.622C99.1016 335.819 98.7534 335.98 98.7256 335.98C98.6978 335.98 98.6752 335.564 98.6752 335.056V334.131L99.1136 334.001C101.059 333.423 102.836 333.528 103.875 334.281C104.596 334.804 104.928 335.994 104.635 337.003C104.361 337.946 103.379 339.109 101.965 340.164C101.598 340.438 101.296 340.69 101.294 340.725C101.292 340.76 102.163 340.788 103.23 340.788H105.171V342.307H98.4221L98.4238 341.653Z" fill="black"/>
<path d="M47.2657 287.441C44.4536 286.284 42.9024 283.617 43.2882 280.603C43.6051 278.128 45.8245 275.77 48.2504 275.33L48.8312 275.224V276.146C48.8312 276.974 48.7926 277.086 48.4524 277.241C47.124 277.846 46.0415 279.526 45.9232 281.167C45.7871 283.055 46.7341 284.888 48.2745 285.717C48.8147 286.008 48.8312 286.044 48.8312 286.911C48.8312 287.736 48.8044 287.805 48.4827 287.802C48.2911 287.799 47.7433 287.637 47.2657 287.441Z" fill="black"/>
<path d="M128.257 301.459C127.386 301.095 127.281 300.541 127.354 296.725C127.417 293.448 127.462 293.086 127.847 292.805C128.436 292.375 129.361 292.418 129.793 292.895C130.089 293.223 130.154 293.793 130.154 296.063V298.831H132.961C135.402 298.831 135.814 298.884 136.129 299.231C136.626 299.781 136.582 300.647 136.031 301.146C135.626 301.513 135.167 301.568 132.153 301.611C130.272 301.638 128.519 301.569 128.257 301.459V301.459Z" fill="black"/>
<path d="M162.581 274.043C163.383 274.378 163.48 274.889 163.413 278.403C163.355 281.421 163.313 281.755 162.958 282.014C162.416 282.409 161.564 282.37 161.166 281.931C160.893 281.629 160.833 281.103 160.833 279.013V276.463H158.249C156 276.463 155.62 276.415 155.331 276.095C154.873 275.589 154.913 274.791 155.421 274.331C155.793 273.993 156.216 273.942 158.992 273.903C160.724 273.878 162.339 273.941 162.581 274.043L162.581 274.043Z" fill="black"/>
</svg>
