<svg width="349" height="201" viewBox="0 0 349 201" fill="none" xmlns="http://www.w3.org/2000/svg">
<mask id="path-1-inside-1_1_27" fill="white">
<path d="M0 100.5C0 45.2715 44.7715 0 100 0H349V201H100C44.7715 201 0 155.728 0 100.5V100.5Z"/>
</mask>
<path d="M0 100.5C0 45.2715 44.7715 0 100 0H349V201H100C44.7715 201 0 155.728 0 100.5V100.5Z" fill="#CF9947"/>
<path d="M-1 100C-1 44.2192 44.2192 -1 100 -1H349V1H100C45.3238 1 1 45.3238 1 100H-1ZM349 202H100C44.2192 202 -1 156.781 -1 101H1C1 155.676 45.3238 200 100 200H349V202ZM100 202C44.2192 202 -1 156.781 -1 101V100C-1 44.2192 44.2192 -1 100 -1V1C45.3238 1 1 45.3238 1 100V101C1 155.676 45.3238 200 100 200V202ZM349 0V201V0Z" fill="black" mask="url(#path-1-inside-1_1_27)"/>
</svg>
